<svg xmlns="http://www.w3.org/2000/svg" xmlns:xlink="http://www.w3.org/1999/xlink" width="100" zoomAndPan="magnify" viewBox="0 0 75 74.999997" height="100" preserveAspectRatio="xMidYMid meet" version="1.0"><defs><clipPath id="eb8cf7b871"><path d="M 0 59.25 L 75 59.25 L 75 75 L 0 75 Z M 0 59.25 " clip-rule="nonzero"/></clipPath><clipPath id="67eb473011"><path d="M 0 0 L 75 0 L 75 17.398438 L 0 17.398438 Z M 0 0 " clip-rule="nonzero"/></clipPath></defs><rect x="-7.5" width="90" fill="#ffffff" y="-7.5" height="89.999996" fill-opacity="1"/><rect x="-7.5" width="90" fill="#ffffff" y="-7.5" height="89.999996" fill-opacity="1"/><rect x="-7.5" width="90" fill="#ffffff" y="-7.5" height="89.999996" fill-opacity="1"/><path fill="#000000" d="M 23.1875 31.40625 C 22.625 30.90625 21.75 30.6875 20.5625 30.6875 L 18.75 30.6875 L 18.8125 38.3125 L 18.9375 45.96875 L 20.6875 45.90625 C 21.96875 45.90625 22.65625 45.6875 23.28125 45.09375 C 24.03125 44.34375 24.09375 43.96875 24.09375 38.21875 C 24.09375 32.25 24.03125 32.09375 23.1875 31.40625 Z M 0 15.4375 L 0 59.5625 L 75 59.5625 L 75 15.4375 Z M 26.75 47.8125 C 25.375 49.625 23.4375 50.21875 18.84375 50.21875 L 14.71875 50.21875 L 14.71875 26.65625 L 19.09375 26.65625 C 24.3125 26.65625 25.84375 27.21875 27.21875 29.46875 C 28.0625 30.8125 28.125 31.34375 28.21875 37.5 C 28.375 44.46875 28.15625 46.03125 26.75 47.8125 Z M 42.65625 30.71875 L 34.9375 30.71875 L 34.9375 36.25 L 39.6875 36.25 L 39.6875 40.25 L 37.4375 40.375 L 35.09375 40.46875 L 35.09375 46 L 38.90625 46.09375 L 42.65625 46.21875 L 42.65625 50.21875 L 37.65625 50.21875 C 32.875 50.21875 32.65625 50.1875 31.8125 49.28125 L 30.875 48.40625 L 30.875 38.53125 C 30.875 29.09375 30.90625 28.59375 31.65625 27.65625 C 32.375 26.6875 32.4375 26.6875 37.53125 26.6875 L 42.65625 26.6875 L 42.65625 30.75 Z M 57.28125 47.75 C 56.75 49.09375 55.28125 50.21875 54.15625 50.21875 C 53.59375 50.21875 52.75 49.75 52.0625 49 C 51.0625 48 50.65625 47.03125 49.5 42.5 L 46.6875 31.90625 L 45.28125 26.6875 L 47.65625 26.6875 C 48.90625 26.6875 50 26.75 50 26.84375 C 50 27.03125 53.625 41.03125 53.9375 41.9375 C 54.0625 42.40625 54.9375 39.75 56.21875 34.75 L 58.28125 26.875 L 60.59375 26.75 C 61.84375 26.6875 62.875 26.75 62.875 26.875 C 62.875 27.3125 57.65625 46.8125 57.25 47.75 Z M 57.28125 47.75 " fill-opacity="1" fill-rule="nonzero"/><g clip-path="url(#eb8cf7b871)"><path fill="#000000" d="M 0 59.25 L 74.882812 59.25 L 74.882812 75.070312 L 0 75.070312 Z M 0 59.25 " fill-opacity="1" fill-rule="nonzero"/></g><g clip-path="url(#67eb473011)"><path fill="#000000" d="M 0 0 L 74.882812 0 L 74.882812 17.226562 L 0 17.226562 Z M 0 0 " fill-opacity="1" fill-rule="nonzero"/></g></svg>