<svg xmlns="http://www.w3.org/2000/svg" xmlns:xlink="http://www.w3.org/1999/xlink" width="100" zoomAndPan="magnify" viewBox="0 0 75 74.999997" height="100" preserveAspectRatio="xMidYMid meet" version="1.0"><defs><clipPath id="6ef17d44f8"><path d="M 1.460938 10 L 73.460938 10 L 73.460938 65 L 1.460938 65 Z M 1.460938 10 " clip-rule="nonzero"/></clipPath></defs><rect x="-7.5" width="90" fill="#ffffff" y="-7.5" height="89.999996" fill-opacity="1"/><rect x="-7.5" width="90" fill="#ffffff" y="-7.5" height="89.999996" fill-opacity="1"/><rect x="-7.5" width="90" fill="#ffffff" y="-7.5" height="89.999996" fill-opacity="1"/><path fill="#5865f2" d="M 0 0 L 74.882812 0 L 74.882812 74.882812 L 0 74.882812 Z M 0 0 " fill-opacity="1" fill-rule="nonzero"/><g clip-path="url(#6ef17d44f8)"><path fill="#ffffff" d="M 62.414062 14.570312 C 57.726562 12.421875 52.839844 10.90625 47.757812 10.027344 C 47.652344 10.007812 47.574219 10.042969 47.523438 10.136719 C 46.890625 11.261719 46.1875 12.730469 45.699219 13.886719 C 40.164062 13.058594 34.65625 13.058594 29.238281 13.886719 C 28.746094 12.707031 28.019531 11.261719 27.382812 10.136719 C 27.332031 10.046875 27.253906 10.011719 27.148438 10.027344 C 22.066406 10.902344 17.179688 12.417969 12.492188 14.570312 C 12.453125 14.589844 12.421875 14.617188 12.398438 14.65625 C 3.0625 28.601562 0.503906 42.203125 1.761719 55.636719 C 1.765625 55.707031 1.796875 55.761719 1.855469 55.804688 C 8.011719 60.328125 13.976562 63.074219 19.832031 64.890625 C 19.9375 64.921875 20.019531 64.894531 20.085938 64.808594 C 21.46875 62.917969 22.703125 60.925781 23.761719 58.828125 C 23.792969 58.765625 23.796875 58.703125 23.773438 58.640625 C 23.746094 58.578125 23.703125 58.535156 23.636719 58.511719 C 21.679688 57.765625 19.816406 56.863281 18.023438 55.832031 C 17.949219 55.792969 17.914062 55.730469 17.90625 55.648438 C 17.902344 55.566406 17.933594 55.5 18 55.449219 C 18.375 55.167969 18.753906 54.871094 19.113281 54.574219 C 19.183594 54.515625 19.261719 54.507812 19.347656 54.542969 C 31.128906 59.925781 43.886719 59.925781 55.53125 54.542969 C 55.617188 54.503906 55.695312 54.511719 55.765625 54.574219 C 56.128906 54.871094 56.503906 55.167969 56.886719 55.449219 C 56.949219 55.5 56.980469 55.566406 56.976562 55.648438 C 56.972656 55.726562 56.9375 55.789062 56.867188 55.832031 C 55.066406 56.882812 53.195312 57.773438 51.246094 58.507812 C 51.183594 58.53125 51.136719 58.574219 51.113281 58.640625 C 51.089844 58.703125 51.09375 58.765625 51.125 58.828125 C 52.207031 60.921875 53.441406 62.914062 54.800781 64.804688 C 54.863281 64.894531 54.945312 64.925781 55.050781 64.890625 C 60.933594 63.074219 66.898438 60.328125 73.058594 55.804688 C 73.113281 55.761719 73.144531 55.707031 73.152344 55.636719 C 74.652344 40.109375 70.636719 26.617188 62.507812 14.65625 C 62.488281 14.617188 62.457031 14.589844 62.414062 14.570312 Z M 25.523438 47.457031 C 21.976562 47.457031 19.050781 44.199219 19.050781 40.199219 C 19.050781 36.199219 21.917969 32.941406 25.523438 32.941406 C 29.15625 32.941406 32.050781 36.226562 31.992188 40.199219 C 31.992188 44.199219 29.125 47.457031 25.523438 47.457031 Z M 49.445312 47.457031 C 45.898438 47.457031 42.976562 44.199219 42.976562 40.199219 C 42.976562 36.199219 45.84375 32.941406 49.445312 32.941406 C 53.078125 32.941406 55.972656 36.226562 55.917969 40.199219 C 55.917969 44.199219 53.078125 47.457031 49.445312 47.457031 Z M 49.445312 47.457031 " fill-opacity="1" fill-rule="nonzero"/></g></svg>