<svg xmlns="http://www.w3.org/2000/svg" xmlns:xlink="http://www.w3.org/1999/xlink" width="100" zoomAndPan="magnify" viewBox="0 0 75 74.999997" height="100" preserveAspectRatio="xMidYMid meet" version="1.0"><defs><clipPath id="b7e75a437e"><path d="M 26.25 15.601562 L 48.75 15.601562 L 48.75 75 L 26.25 75 Z M 26.25 15.601562 " clip-rule="nonzero"/></clipPath><clipPath id="f4a38ef851"><path d="M 16.648438 10.800781 L 61.800781 10.800781 L 61.800781 64.949219 L 16.648438 64.949219 Z M 16.648438 10.800781 " clip-rule="nonzero"/></clipPath></defs><rect x="-7.5" width="90" fill="#ffffff" y="-7.5" height="89.999996" fill-opacity="1"/><rect x="-7.5" width="90" fill="#ffffff" y="-7.5" height="89.999996" fill-opacity="1"/><rect x="-7.5" width="90" fill="#ffffff" y="-7.5" height="89.999996" fill-opacity="1"/><path fill="#1b74e4" d="M 0 0 L 74.882812 0 L 74.882812 74.882812 L 0 74.882812 Z M 0 0 " fill-opacity="1" fill-rule="nonzero"/><g clip-path="url(#b7e75a437e)"><path fill="#ffffff" d="M 26.25 15.601562 L 48.75 15.601562 L 48.75 75.015625 L 26.25 75.015625 Z M 26.25 15.601562 " fill-opacity="1" fill-rule="nonzero"/></g><g clip-path="url(#f4a38ef851)"><path fill="#ffffff" d="M 16.648438 10.800781 L 61.648438 10.800781 L 61.648438 64.941406 L 16.648438 64.941406 Z M 16.648438 10.800781 " fill-opacity="1" fill-rule="nonzero"/></g><path fill="#1b74e4" d="M 75 39.527344 C 75 18.820312 58.210938 2.027344 37.5 2.027344 C 16.789062 2.027344 0 18.820312 0 39.527344 C 0 58.246094 13.710938 73.757812 31.640625 76.570312 L 31.640625 50.367188 L 22.117188 50.367188 L 22.117188 39.523438 L 31.640625 39.523438 L 31.640625 31.269531 C 31.640625 21.871094 37.242188 16.679688 45.804688 16.679688 C 49.90625 16.679688 54.199219 17.414062 54.199219 17.414062 L 54.199219 26.640625 L 49.46875 26.640625 C 44.808594 26.640625 43.355469 29.53125 43.355469 32.496094 L 43.355469 39.527344 L 53.757812 39.527344 L 52.09375 50.371094 L 43.355469 50.371094 L 43.355469 76.574219 C 61.289062 73.757812 75 58.242188 75 39.527344 Z M 75 39.527344 " fill-opacity="1" fill-rule="nonzero"/></svg>