<svg xmlns="http://www.w3.org/2000/svg" xmlns:xlink="http://www.w3.org/1999/xlink" width="50" zoomAndPan="magnify" viewBox="0 0 37.5 37.499999" height="50" preserveAspectRatio="xMidYMid meet" version="1.0"><defs><clipPath id="e31e2f6ba4"><path d="M 0 0 L 37.007812 0 L 37.007812 37.007812 L 0 37.007812 Z M 0 0 " clip-rule="nonzero"/></clipPath><clipPath id="bcfeebd950"><path d="M 23.625 27.601562 L 37.007812 27.601562 L 37.007812 37.007812 L 23.625 37.007812 Z M 23.625 27.601562 " clip-rule="nonzero"/></clipPath><clipPath id="8e58ff8cfb"><path d="M 0 33.75 L 13.800781 33.75 L 13.800781 37.007812 L 0 37.007812 Z M 0 33.75 " clip-rule="nonzero"/></clipPath><clipPath id="da6896c4ae"><path d="M 0 30.300781 L 7.085938 30.300781 L 7.085938 37.007812 L 0 37.007812 Z M 0 30.300781 " clip-rule="nonzero"/></clipPath><clipPath id="d54833386f"><path d="M 0 7.949219 L 3.75 7.949219 L 3.75 33.75 L 0 33.75 Z M 0 7.949219 " clip-rule="nonzero"/></clipPath><clipPath id="c2cfa815b1"><path d="M 0 0 L 37.007812 0 L 37.007812 7.949219 L 0 7.949219 Z M 0 0 " clip-rule="nonzero"/></clipPath><clipPath id="2433d6fd1f"><path d="M 33.75 3.375 L 37.007812 3.375 L 37.007812 27.601562 L 33.75 27.601562 Z M 33.75 3.375 " clip-rule="nonzero"/></clipPath></defs><g clip-path="url(#e31e2f6ba4)"><path fill="#ffffff" d="M 0 0 L 37.5 0 L 37.5 217.5 L 0 217.5 Z M 0 0 " fill-opacity="1" fill-rule="nonzero"/><path fill="#ffffff" d="M 0 0 L 37.5 0 L 37.5 37.5 L 0 37.5 Z M 0 0 " fill-opacity="1" fill-rule="nonzero"/><path fill="#ffffff" d="M 0 0 L 37.5 0 L 37.5 37.5 L 0 37.5 Z M 0 0 " fill-opacity="1" fill-rule="nonzero"/><path fill="#000000" d="M 18.75 0.464844 C 8.390625 0.464844 0 8.859375 0 19.214844 C 0 27.5 5.371094 34.527344 12.820312 37.003906 C 13.757812 37.179688 14.101562 36.601562 14.101562 36.101562 C 14.101562 35.65625 14.085938 34.476562 14.078125 32.914062 C 8.863281 34.046875 7.761719 30.398438 7.761719 30.398438 C 6.910156 28.234375 5.675781 27.65625 5.675781 27.65625 C 3.976562 26.492188 5.808594 26.515625 5.808594 26.515625 C 7.691406 26.648438 8.679688 28.449219 8.679688 28.449219 C 10.351562 31.316406 13.070312 30.488281 14.140625 30.007812 C 14.308594 28.796875 14.792969 27.96875 15.328125 27.5 C 11.164062 27.03125 6.789062 25.417969 6.789062 18.234375 C 6.789062 16.1875 7.515625 14.515625 8.71875 13.203125 C 8.507812 12.730469 7.875 10.824219 8.882812 8.242188 C 8.882812 8.242188 10.453125 7.738281 14.039062 10.164062 C 15.539062 9.746094 17.132812 9.539062 18.726562 9.53125 C 20.320312 9.539062 21.914062 9.746094 23.414062 10.164062 C 26.976562 7.738281 28.546875 8.242188 28.546875 8.242188 C 29.554688 10.824219 28.921875 12.730469 28.734375 13.203125 C 29.929688 14.515625 30.65625 16.1875 30.65625 18.234375 C 30.65625 25.4375 26.273438 27.023438 22.101562 27.484375 C 22.757812 28.046875 23.367188 29.195312 23.367188 30.953125 C 23.367188 33.460938 23.34375 35.476562 23.34375 36.085938 C 23.34375 36.578125 23.671875 37.164062 24.632812 36.976562 C 32.132812 34.519531 37.5 27.488281 37.5 19.214844 C 37.5 8.859375 29.105469 0.464844 18.75 0.464844 " fill-opacity="1" fill-rule="nonzero"/></g><g clip-path="url(#bcfeebd950)"><path fill="#000000" d="M 23.625 27.601562 L 39.972656 27.601562 L 39.972656 37.445312 L 23.625 37.445312 Z M 23.625 27.601562 " fill-opacity="1" fill-rule="nonzero"/></g><g clip-path="url(#8e58ff8cfb)"><path fill="#000000" d="M -2.476562 33.75 L 13.871094 33.75 L 13.871094 39.550781 L -2.476562 39.550781 Z M -2.476562 33.75 " fill-opacity="1" fill-rule="nonzero"/></g><g clip-path="url(#da6896c4ae)"><path fill="#000000" d="M -0.0390625 30.300781 L 7.167969 30.300781 L 7.167969 37.507812 L -0.0390625 37.507812 Z M -0.0390625 30.300781 " fill-opacity="1" fill-rule="nonzero"/></g><g clip-path="url(#d54833386f)"><path fill="#000000" d="M -0.0390625 7.949219 L 3.828125 7.949219 L 3.828125 33.789062 L -0.0390625 33.789062 Z M -0.0390625 7.949219 " fill-opacity="1" fill-rule="nonzero"/></g><g clip-path="url(#c2cfa815b1)"><path fill="#000000" d="M 0 -1.199219 L 44.648438 -1.199219 L 44.648438 7.941406 L 0 7.941406 Z M 0 -1.199219 " fill-opacity="1" fill-rule="nonzero"/></g><g clip-path="url(#2433d6fd1f)"><path fill="#000000" d="M 33.75 3.375 L 56.601562 3.375 L 56.601562 27.632812 L 33.75 27.632812 Z M 33.75 3.375 " fill-opacity="1" fill-rule="nonzero"/></g></svg>