<svg xmlns="http://www.w3.org/2000/svg" xmlns:xlink="http://www.w3.org/1999/xlink" width="50" zoomAndPan="magnify" viewBox="0 0 37.5 37.499999" height="50" preserveAspectRatio="xMidYMid meet" version="1.0"><defs><clipPath id="859a8c9bfc"><path d="M 0 0 L 37.007812 0 L 37.007812 37.007812 L 0 37.007812 Z M 0 0 " clip-rule="nonzero"/></clipPath><clipPath id="d6c8592a4a"><path d="M 1.011719 1.011719 L 36.261719 1.011719 L 36.261719 36 L 1.011719 36 Z M 1.011719 1.011719 " clip-rule="nonzero"/></clipPath><clipPath id="06be853887"><path d="M 0 31.875 L 9.375 31.875 L 9.375 37.007812 L 0 37.007812 Z M 0 31.875 " clip-rule="nonzero"/></clipPath></defs><g clip-path="url(#859a8c9bfc)"><path fill="#ffffff" d="M 0 0 L 37.5 0 L 37.5 37.5 L 0 37.5 Z M 0 0 " fill-opacity="1" fill-rule="nonzero"/><path fill="#fca326" d="M 0 0 L 37.5 0 L 37.5 37.5 L 0 37.5 Z M 0 0 " fill-opacity="1" fill-rule="nonzero"/></g><g clip-path="url(#d6c8592a4a)"><path fill="#ffffff" d="M 35.675781 15.101562 L 35.625 14.976562 L 30.828125 2.453125 C 30.726562 2.203125 30.5625 2.003906 30.335938 1.859375 C 30.105469 1.71875 29.855469 1.652344 29.585938 1.667969 C 29.320312 1.683594 29.078125 1.773438 28.867188 1.9375 C 28.65625 2.109375 28.515625 2.324219 28.441406 2.585938 L 25.199219 12.496094 L 12.082031 12.496094 L 8.84375 2.585938 C 8.773438 2.324219 8.628906 2.105469 8.417969 1.9375 C 8.207031 1.769531 7.964844 1.679688 7.695312 1.667969 C 7.425781 1.652344 7.179688 1.714844 6.949219 1.859375 C 6.722656 2.003906 6.554688 2.199219 6.457031 2.453125 L 1.648438 14.96875 L 1.601562 15.09375 C 1.253906 15.996094 1.0625 16.929688 1.019531 17.894531 C 0.980469 18.859375 1.089844 19.808594 1.359375 20.738281 C 1.625 21.664062 2.03125 22.527344 2.578125 23.324219 C 3.125 24.121094 3.785156 24.808594 4.554688 25.390625 L 4.574219 25.402344 L 4.617188 25.433594 L 11.925781 30.910156 L 15.542969 33.644531 L 17.742188 35.308594 C 18.007812 35.507812 18.308594 35.609375 18.640625 35.609375 C 18.972656 35.609375 19.269531 35.507812 19.535156 35.308594 L 21.738281 33.644531 L 25.351562 30.910156 L 32.707031 25.402344 L 32.722656 25.386719 C 33.492188 24.804688 34.152344 24.117188 34.699219 23.320312 C 35.242188 22.527344 35.648438 21.664062 35.914062 20.738281 C 36.179688 19.808594 36.292969 18.863281 36.253906 17.898438 C 36.210938 16.9375 36.019531 16.003906 35.675781 15.101562 Z M 35.675781 15.101562 " fill-opacity="1" fill-rule="nonzero"/></g><g clip-path="url(#06be853887)"><path fill="#fca326" d="M -1.875 31.875 L 9.375 31.875 L 9.375 43.125 L -1.875 43.125 Z M -1.875 31.875 " fill-opacity="1" fill-rule="nonzero"/></g></svg>