<svg xmlns="http://www.w3.org/2000/svg" xmlns:xlink="http://www.w3.org/1999/xlink" width="50" zoomAndPan="magnify" viewBox="0 0 37.5 37.499999" height="50" preserveAspectRatio="xMidYMid meet" version="1.0"><defs><clipPath id="dd99c2fea0"><path d="M 0 0 L 37.007812 0 L 37.007812 37.007812 L 0 37.007812 Z M 0 0 " clip-rule="nonzero"/></clipPath><clipPath id="356da20a9b"><path d="M 1.3125 1.3125 L 36.5625 1.3125 L 36.5625 36.5625 L 1.3125 36.5625 Z M 1.3125 1.3125 " clip-rule="nonzero"/></clipPath></defs><g clip-path="url(#dd99c2fea0)"><path fill="#ffffff" d="M 0 0 L 37.5 0 L 37.5 37.5 L 0 37.5 Z M 0 0 " fill-opacity="1" fill-rule="nonzero"/><path fill="#2962ff" d="M 0 0 L 37.5 0 L 37.5 37.5 L 0 37.5 Z M 0 0 " fill-opacity="1" fill-rule="nonzero"/></g><g clip-path="url(#356da20a9b)"><path fill="#ffffff" d="M 34.140625 13.089844 L 24.785156 3.734375 C 24.402344 3.351562 23.984375 3.007812 23.53125 2.707031 C 23.082031 2.40625 22.605469 2.148438 22.101562 1.941406 C 21.601562 1.734375 21.082031 1.578125 20.550781 1.472656 C 20.019531 1.367188 19.480469 1.3125 18.9375 1.3125 C 18.394531 1.3125 17.855469 1.367188 17.324219 1.472656 C 16.792969 1.578125 16.273438 1.734375 15.773438 1.941406 C 15.269531 2.148438 14.792969 2.40625 14.34375 2.707031 C 13.890625 3.007812 13.472656 3.351562 13.089844 3.734375 L 3.734375 13.089844 C 3.351562 13.472656 3.007812 13.890625 2.707031 14.34375 C 2.40625 14.796875 2.148438 15.269531 1.941406 15.773438 C 1.734375 16.273438 1.578125 16.792969 1.472656 17.324219 C 1.367188 17.855469 1.3125 18.394531 1.3125 18.9375 C 1.3125 19.480469 1.367188 20.019531 1.472656 20.550781 C 1.578125 21.082031 1.734375 21.601562 1.941406 22.101562 C 2.148438 22.605469 2.40625 23.082031 2.707031 23.53125 C 3.007812 23.984375 3.351562 24.402344 3.734375 24.785156 L 13.089844 34.140625 C 13.472656 34.523438 13.890625 34.867188 14.34375 35.167969 C 14.792969 35.46875 15.269531 35.726562 15.773438 35.933594 C 16.273438 36.140625 16.792969 36.296875 17.324219 36.402344 C 17.855469 36.507812 18.394531 36.5625 18.9375 36.5625 C 19.480469 36.5625 20.019531 36.507812 20.550781 36.402344 C 21.082031 36.296875 21.601562 36.140625 22.101562 35.933594 C 22.605469 35.726562 23.078125 35.46875 23.53125 35.167969 C 23.984375 34.867188 24.402344 34.523438 24.785156 34.140625 L 34.140625 24.785156 C 34.523438 24.402344 34.867188 23.984375 35.167969 23.53125 C 35.46875 23.082031 35.726562 22.605469 35.933594 22.101562 C 36.140625 21.601562 36.296875 21.082031 36.402344 20.550781 C 36.507812 20.019531 36.5625 19.480469 36.5625 18.9375 C 36.5625 18.394531 36.507812 17.855469 36.402344 17.324219 C 36.296875 16.792969 36.140625 16.273438 35.933594 15.773438 C 35.726562 15.269531 35.46875 14.796875 35.167969 14.34375 C 34.867188 13.890625 34.523438 13.472656 34.140625 13.089844 Z M 18.9375 24.742188 C 18.554688 24.742188 18.179688 24.707031 17.804688 24.632812 C 17.429688 24.558594 17.066406 24.449219 16.714844 24.300781 C 16.363281 24.15625 16.027344 23.976562 15.710938 23.765625 C 15.394531 23.554688 15.101562 23.3125 14.832031 23.042969 C 14.5625 22.773438 14.320312 22.480469 14.109375 22.164062 C 13.898438 21.847656 13.71875 21.511719 13.574219 21.160156 C 13.425781 20.808594 13.316406 20.445312 13.242188 20.070312 C 13.167969 19.695312 13.132812 19.320312 13.132812 18.9375 C 13.132812 18.554688 13.167969 18.179688 13.242188 17.804688 C 13.316406 17.429688 13.425781 17.066406 13.574219 16.714844 C 13.71875 16.363281 13.898438 16.027344 14.109375 15.710938 C 14.320312 15.394531 14.5625 15.101562 14.832031 14.832031 C 15.101562 14.5625 15.394531 14.320312 15.710938 14.109375 C 16.027344 13.898438 16.363281 13.71875 16.714844 13.574219 C 17.066406 13.425781 17.429688 13.316406 17.804688 13.242188 C 18.179688 13.167969 18.554688 13.132812 18.9375 13.132812 C 19.320312 13.132812 19.695312 13.167969 20.070312 13.242188 C 20.445312 13.316406 20.808594 13.425781 21.160156 13.574219 C 21.511719 13.71875 21.847656 13.898438 22.164062 14.109375 C 22.480469 14.320312 22.773438 14.5625 23.042969 14.832031 C 23.3125 15.101562 23.554688 15.394531 23.765625 15.710938 C 23.976562 16.027344 24.15625 16.363281 24.300781 16.714844 C 24.449219 17.066406 24.558594 17.429688 24.632812 17.804688 C 24.707031 18.179688 24.742188 18.554688 24.742188 18.9375 C 24.742188 19.320312 24.707031 19.695312 24.632812 20.070312 C 24.558594 20.445312 24.449219 20.808594 24.300781 21.160156 C 24.15625 21.511719 23.976562 21.847656 23.765625 22.164062 C 23.554688 22.480469 23.3125 22.773438 23.042969 23.042969 C 22.773438 23.3125 22.480469 23.554688 22.164062 23.765625 C 21.847656 23.976562 21.511719 24.15625 21.160156 24.300781 C 20.808594 24.449219 20.445312 24.558594 20.070312 24.632812 C 19.695312 24.707031 19.320312 24.742188 18.9375 24.742188 Z M 18.9375 24.742188 " fill-opacity="1" fill-rule="nonzero"/></g></svg>