<svg xmlns="http://www.w3.org/2000/svg" xmlns:xlink="http://www.w3.org/1999/xlink" width="200" zoomAndPan="magnify" viewBox="0 0 150 149.999998" height="200" preserveAspectRatio="xMidYMid meet" version="1.0"><path fill="#ffffff" d="M 74.964844 25.351562 C 73.339844 25.351562 71.71875 25.433594 70.101562 25.59375 C 68.484375 25.75 66.878906 25.988281 65.285156 26.308594 C 63.691406 26.625 62.117188 27.019531 60.5625 27.488281 C 59.007812 27.960938 57.480469 28.507812 55.980469 29.128906 C 54.480469 29.75 53.011719 30.445312 51.578125 31.210938 C 50.144531 31.976562 48.753906 32.8125 47.402344 33.714844 C 46.050781 34.617188 44.75 35.585938 43.492188 36.613281 C 42.234375 37.644531 41.035156 38.734375 39.882812 39.882812 C 38.734375 41.035156 37.644531 42.234375 36.613281 43.492188 C 35.585938 44.75 34.617188 46.050781 33.714844 47.402344 C 32.8125 48.753906 31.976562 50.144531 31.210938 51.578125 C 30.445312 53.011719 29.75 54.480469 29.128906 55.980469 C 28.507812 57.480469 27.960938 59.007812 27.488281 60.5625 C 27.019531 62.117188 26.625 63.691406 26.308594 65.285156 C 25.988281 66.878906 25.75 68.484375 25.59375 70.101562 C 25.433594 71.71875 25.351562 73.339844 25.351562 74.964844 C 25.351562 76.589844 25.433594 78.210938 25.59375 79.828125 C 25.75 81.445312 25.988281 83.050781 26.308594 84.644531 C 26.625 86.238281 27.019531 87.8125 27.488281 89.367188 C 27.960938 90.921875 28.507812 92.449219 29.128906 93.953125 C 29.75 95.453125 30.445312 96.921875 31.210938 98.351562 C 31.976562 99.785156 32.8125 101.179688 33.714844 102.527344 C 34.617188 103.878906 35.585938 105.183594 36.613281 106.441406 C 37.644531 107.695312 38.734375 108.898438 39.882812 110.046875 C 41.035156 111.195312 42.234375 112.285156 43.492188 113.316406 C 44.75 114.347656 46.050781 115.316406 47.402344 116.21875 C 48.753906 117.121094 50.144531 117.953125 51.578125 118.71875 C 53.011719 119.484375 54.480469 120.179688 55.980469 120.800781 C 57.480469 121.421875 59.007812 121.96875 60.5625 122.441406 C 62.117188 122.914062 63.691406 123.308594 65.285156 123.625 C 66.878906 123.941406 68.484375 124.179688 70.101562 124.339844 C 71.71875 124.5 73.339844 124.578125 74.964844 124.578125 C 76.589844 124.578125 78.210938 124.5 79.828125 124.339844 C 81.445312 124.179688 83.050781 123.941406 84.644531 123.625 C 86.238281 123.308594 87.8125 122.914062 89.367188 122.441406 C 90.921875 121.96875 92.449219 121.421875 93.953125 120.800781 C 95.453125 120.179688 96.921875 119.484375 98.351562 118.71875 C 99.785156 117.953125 101.179688 117.121094 102.527344 116.21875 C 103.878906 115.316406 105.183594 114.347656 106.441406 113.316406 C 107.695312 112.285156 108.898438 111.195312 110.046875 110.046875 C 111.195312 108.898438 112.285156 107.695312 113.316406 106.441406 C 114.347656 105.183594 115.3125 103.878906 116.21875 102.527344 C 117.121094 101.179688 117.953125 99.785156 118.71875 98.351562 C 119.484375 96.921875 120.179688 95.453125 120.800781 93.953125 C 121.421875 92.449219 121.96875 90.921875 122.441406 89.367188 C 122.914062 87.8125 123.308594 86.238281 123.625 84.644531 C 123.941406 83.050781 124.179688 81.445312 124.339844 79.828125 C 124.5 78.210938 124.578125 76.589844 124.578125 74.964844 C 124.578125 73.339844 124.5 71.71875 124.339844 70.101562 C 124.179688 68.484375 123.941406 66.878906 123.625 65.285156 C 123.308594 63.691406 122.914062 62.117188 122.441406 60.5625 C 121.96875 59.007812 121.421875 57.480469 120.800781 55.980469 C 120.179688 54.480469 119.484375 53.011719 118.71875 51.578125 C 117.953125 50.144531 117.121094 48.753906 116.21875 47.402344 C 115.3125 46.050781 114.347656 44.75 113.316406 43.492188 C 112.285156 42.234375 111.195312 41.035156 110.046875 39.882812 C 108.898438 38.734375 107.695312 37.644531 106.441406 36.613281 C 105.183594 35.585938 103.878906 34.617188 102.527344 33.714844 C 101.179688 32.8125 99.785156 31.976562 98.351562 31.210938 C 96.921875 30.445312 95.453125 29.75 93.953125 29.128906 C 92.449219 28.507812 90.921875 27.960938 89.367188 27.488281 C 87.8125 27.019531 86.238281 26.625 84.644531 26.308594 C 83.050781 25.988281 81.445312 25.75 79.828125 25.59375 C 78.210938 25.433594 76.589844 25.351562 74.964844 25.351562 Z M 11.179688 74.964844 C 11.179688 73.921875 11.203125 72.878906 11.253906 71.835938 C 11.304688 70.792969 11.382812 69.753906 11.484375 68.714844 C 11.585938 67.675781 11.714844 66.640625 11.867188 65.605469 C 12.023438 64.574219 12.199219 63.546875 12.402344 62.523438 C 12.609375 61.496094 12.835938 60.480469 13.089844 59.46875 C 13.34375 58.453125 13.621094 57.449219 13.925781 56.449219 C 14.226562 55.449219 14.554688 54.460938 14.90625 53.476562 C 15.257812 52.492188 15.632812 51.519531 16.035156 50.554688 C 16.433594 49.589844 16.855469 48.636719 17.300781 47.691406 C 17.75 46.75 18.21875 45.816406 18.710938 44.898438 C 19.203125 43.976562 19.71875 43.066406 20.253906 42.171875 C 20.789062 41.277344 21.347656 40.394531 21.929688 39.527344 C 22.507812 38.660156 23.109375 37.804688 23.730469 36.96875 C 24.351562 36.128906 24.996094 35.304688 25.65625 34.5 C 26.320312 33.691406 27 32.902344 27.703125 32.128906 C 28.402344 31.355469 29.125 30.597656 29.863281 29.863281 C 30.597656 29.125 31.355469 28.402344 32.128906 27.703125 C 32.902344 27 33.691406 26.320312 34.5 25.65625 C 35.304688 24.996094 36.128906 24.351562 36.96875 23.730469 C 37.804688 23.109375 38.660156 22.507812 39.527344 21.929688 C 40.394531 21.347656 41.277344 20.789062 42.171875 20.253906 C 43.066406 19.71875 43.976562 19.203125 44.898438 18.710938 C 45.816406 18.21875 46.75 17.75 47.691406 17.300781 C 48.636719 16.855469 49.589844 16.433594 50.554688 16.035156 C 51.519531 15.632812 52.492188 15.257812 53.476562 14.90625 C 54.460938 14.554688 55.449219 14.226562 56.449219 13.925781 C 57.449219 13.621094 58.453125 13.34375 59.46875 13.089844 C 60.480469 12.835938 61.496094 12.609375 62.523438 12.402344 C 63.546875 12.199219 64.574219 12.023438 65.605469 11.867188 C 66.640625 11.714844 67.675781 11.589844 68.714844 11.484375 C 69.753906 11.382812 70.792969 11.304688 71.835938 11.253906 C 72.878906 11.203125 73.921875 11.179688 74.964844 11.179688 C 76.011719 11.179688 77.054688 11.203125 78.097656 11.253906 C 79.136719 11.304688 80.179688 11.382812 81.21875 11.484375 C 82.257812 11.589844 83.292969 11.714844 84.324219 11.867188 C 85.359375 12.023438 86.386719 12.199219 87.410156 12.402344 C 88.433594 12.609375 89.453125 12.835938 90.464844 13.089844 C 91.476562 13.34375 92.484375 13.621094 93.484375 13.925781 C 94.480469 14.226562 95.472656 14.554688 96.457031 14.90625 C 97.4375 15.257812 98.410156 15.632812 99.375 16.035156 C 100.339844 16.433594 101.292969 16.855469 102.238281 17.300781 C 103.183594 17.75 104.113281 18.21875 105.035156 18.710938 C 105.957031 19.203125 106.863281 19.71875 107.757812 20.253906 C 108.65625 20.789062 109.535156 21.347656 110.40625 21.929688 C 111.273438 22.507812 112.125 23.109375 112.964844 23.730469 C 113.800781 24.351562 114.625 24.996094 115.433594 25.65625 C 116.238281 26.320312 117.03125 27 117.804688 27.703125 C 118.578125 28.402344 119.332031 29.125 120.070312 29.863281 C 120.808594 30.597656 121.527344 31.355469 122.230469 32.128906 C 122.929688 32.902344 123.613281 33.691406 124.273438 34.5 C 124.9375 35.304688 125.578125 36.128906 126.199219 36.96875 C 126.824219 37.804688 127.421875 38.660156 128.003906 39.527344 C 128.582031 40.394531 129.140625 41.277344 129.679688 42.171875 C 130.214844 43.066406 130.730469 43.976562 131.222656 44.898438 C 131.714844 45.816406 132.183594 46.75 132.628906 47.691406 C 133.074219 48.636719 133.5 49.589844 133.898438 50.554688 C 134.296875 51.519531 134.671875 52.492188 135.023438 53.476562 C 135.375 54.460938 135.703125 55.449219 136.007812 56.449219 C 136.308594 57.449219 136.589844 58.453125 136.839844 59.46875 C 137.09375 60.480469 137.324219 61.496094 137.527344 62.523438 C 137.730469 63.546875 137.910156 64.574219 138.0625 65.605469 C 138.214844 66.640625 138.34375 67.675781 138.445312 68.714844 C 138.546875 69.753906 138.625 70.792969 138.675781 71.835938 C 138.726562 72.878906 138.753906 73.921875 138.753906 74.964844 C 138.753906 76.011719 138.726562 77.054688 138.675781 78.097656 C 138.625 79.136719 138.546875 80.179688 138.445312 81.21875 C 138.34375 82.257812 138.214844 83.292969 138.0625 84.324219 C 137.910156 85.359375 137.730469 86.386719 137.527344 87.410156 C 137.324219 88.433594 137.09375 89.453125 136.839844 90.464844 C 136.589844 91.476562 136.308594 92.484375 136.007812 93.484375 C 135.703125 94.480469 135.375 95.472656 135.023438 96.457031 C 134.671875 97.4375 134.296875 98.410156 133.898438 99.375 C 133.5 100.339844 133.074219 101.292969 132.628906 102.238281 C 132.183594 103.183594 131.714844 104.113281 131.222656 105.035156 C 130.730469 105.957031 130.214844 106.863281 129.679688 107.757812 C 129.140625 108.65625 128.582031 109.535156 128.003906 110.40625 C 127.421875 111.273438 126.824219 112.125 126.199219 112.964844 C 125.578125 113.800781 124.9375 114.625 124.273438 115.433594 C 123.613281 116.238281 122.929688 117.03125 122.230469 117.804688 C 121.527344 118.578125 120.808594 119.332031 120.070312 120.070312 C 119.332031 120.808594 118.578125 121.527344 117.804688 122.230469 C 117.03125 122.929688 116.238281 123.613281 115.433594 124.273438 C 114.625 124.9375 113.800781 125.578125 112.964844 126.199219 C 112.125 126.824219 111.273438 127.421875 110.40625 128.003906 C 109.535156 128.582031 108.65625 129.140625 107.757812 129.679688 C 106.863281 130.214844 105.957031 130.730469 105.035156 131.222656 C 104.113281 131.714844 103.183594 132.183594 102.238281 132.628906 C 101.292969 133.074219 100.339844 133.5 99.375 133.898438 C 98.410156 134.296875 97.4375 134.671875 96.457031 135.023438 C 95.472656 135.375 94.480469 135.703125 93.484375 136.007812 C 92.484375 136.308594 91.476562 136.589844 90.464844 136.839844 C 89.453125 137.09375 88.433594 137.324219 87.410156 137.527344 C 86.386719 137.730469 85.359375 137.910156 84.324219 138.0625 C 83.292969 138.214844 82.257812 138.34375 81.21875 138.445312 C 80.179688 138.546875 79.136719 138.625 78.097656 138.675781 C 77.054688 138.726562 76.011719 138.753906 74.964844 138.753906 C 73.921875 138.753906 72.878906 138.726562 71.835938 138.675781 C 70.792969 138.625 69.753906 138.546875 68.714844 138.445312 C 67.675781 138.34375 66.640625 138.214844 65.605469 138.0625 C 64.574219 137.910156 63.546875 137.730469 62.523438 137.527344 C 61.496094 137.324219 60.480469 137.09375 59.46875 136.839844 C 58.453125 136.589844 57.449219 136.308594 56.449219 136.007812 C 55.449219 135.703125 54.460938 135.375 53.476562 135.023438 C 52.492188 134.671875 51.519531 134.296875 50.554688 133.898438 C 49.589844 133.5 48.636719 133.074219 47.691406 132.628906 C 46.75 132.183594 45.816406 131.714844 44.898438 131.222656 C 43.976562 130.730469 43.066406 130.214844 42.171875 129.679688 C 41.277344 129.140625 40.394531 128.582031 39.527344 128.003906 C 38.660156 127.421875 37.804688 126.824219 36.96875 126.199219 C 36.128906 125.578125 35.304688 124.9375 34.5 124.273438 C 33.691406 123.613281 32.902344 122.929688 32.128906 122.230469 C 31.355469 121.527344 30.597656 120.808594 29.863281 120.070312 C 29.125 119.332031 28.402344 118.578125 27.703125 117.804688 C 27 117.03125 26.320312 116.238281 25.65625 115.433594 C 24.996094 114.625 24.351562 113.800781 23.730469 112.964844 C 23.109375 112.125 22.507812 111.273438 21.929688 110.40625 C 21.347656 109.535156 20.789062 108.65625 20.253906 107.757812 C 19.71875 106.863281 19.203125 105.957031 18.710938 105.035156 C 18.21875 104.113281 17.75 103.183594 17.300781 102.238281 C 16.855469 101.292969 16.433594 100.339844 16.035156 99.375 C 15.632812 98.410156 15.257812 97.4375 14.90625 96.457031 C 14.554688 95.472656 14.226562 94.480469 13.925781 93.484375 C 13.621094 92.484375 13.34375 91.476562 13.089844 90.464844 C 12.835938 89.453125 12.609375 88.433594 12.402344 87.410156 C 12.199219 86.386719 12.023438 85.359375 11.867188 84.324219 C 11.714844 83.292969 11.585938 82.257812 11.484375 81.21875 C 11.382812 80.179688 11.304688 79.136719 11.253906 78.097656 C 11.203125 77.054688 11.179688 76.011719 11.179688 74.964844 Z M 67.878906 46.617188 C 67.878906 46.152344 67.921875 45.691406 68.015625 45.234375 C 68.105469 44.777344 68.238281 44.332031 68.417969 43.902344 C 68.597656 43.472656 68.8125 43.066406 69.074219 42.679688 C 69.332031 42.292969 69.625 41.933594 69.953125 41.605469 C 70.285156 41.273438 70.640625 40.980469 71.027344 40.722656 C 71.414062 40.464844 71.824219 40.246094 72.253906 40.066406 C 72.683594 39.890625 73.125 39.753906 73.582031 39.664062 C 74.039062 39.574219 74.5 39.527344 74.964844 39.527344 L 75.035156 39.527344 C 75.503906 39.527344 75.964844 39.574219 76.417969 39.664062 C 76.875 39.753906 77.320312 39.890625 77.75 40.066406 C 78.179688 40.246094 78.585938 40.464844 78.972656 40.722656 C 79.359375 40.980469 79.71875 41.273438 80.046875 41.605469 C 80.378906 41.933594 80.671875 42.292969 80.929688 42.679688 C 81.1875 43.066406 81.40625 43.472656 81.585938 43.902344 C 81.761719 44.332031 81.898438 44.777344 81.988281 45.234375 C 82.078125 45.691406 82.125 46.152344 82.125 46.617188 C 82.125 47.082031 82.078125 47.542969 81.988281 48 C 81.898438 48.453125 81.761719 48.898438 81.585938 49.328125 C 81.40625 49.757812 81.1875 50.167969 80.929688 50.554688 C 80.671875 50.941406 80.378906 51.296875 80.046875 51.628906 C 79.71875 51.957031 79.359375 52.25 78.972656 52.507812 C 78.585938 52.765625 78.179688 52.984375 77.75 53.164062 C 77.320312 53.34375 76.875 53.476562 76.417969 53.566406 C 75.964844 53.65625 75.503906 53.703125 75.035156 53.703125 L 74.964844 53.703125 C 74.5 53.703125 74.039062 53.65625 73.582031 53.566406 C 73.125 53.476562 72.683594 53.34375 72.253906 53.164062 C 71.824219 52.984375 71.414062 52.765625 71.027344 52.507812 C 70.640625 52.25 70.285156 51.957031 69.953125 51.628906 C 69.625 51.296875 69.332031 50.941406 69.074219 50.554688 C 68.8125 50.167969 68.597656 49.757812 68.417969 49.328125 C 68.238281 48.898438 68.105469 48.453125 68.015625 48 C 67.921875 47.542969 67.878906 47.082031 67.878906 46.617188 Z M 67.949219 103.316406 C 67.949219 103.78125 67.996094 104.242188 68.085938 104.699219 C 68.175781 105.15625 68.3125 105.597656 68.488281 106.027344 C 68.667969 106.457031 68.886719 106.867188 69.144531 107.253906 C 69.402344 107.640625 69.695312 108 70.023438 108.328125 C 70.355469 108.65625 70.710938 108.949219 71.097656 109.207031 C 71.484375 109.46875 71.894531 109.6875 72.324219 109.863281 C 72.753906 110.042969 73.199219 110.175781 73.652344 110.265625 C 74.109375 110.359375 74.570312 110.402344 75.035156 110.402344 C 75.503906 110.402344 75.964844 110.359375 76.417969 110.265625 C 76.875 110.175781 77.320312 110.042969 77.75 109.863281 C 78.179688 109.6875 78.585938 109.46875 78.972656 109.207031 C 79.359375 108.949219 79.71875 108.65625 80.046875 108.328125 C 80.378906 108 80.671875 107.640625 80.929688 107.253906 C 81.1875 106.867188 81.40625 106.457031 81.585938 106.027344 C 81.761719 105.597656 81.898438 105.15625 81.988281 104.699219 C 82.078125 104.242188 82.125 103.78125 82.125 103.316406 L 82.125 67.878906 C 82.125 67.414062 82.078125 66.953125 81.988281 66.496094 C 81.898438 66.039062 81.761719 65.597656 81.585938 65.167969 C 81.40625 64.734375 81.1875 64.328125 80.929688 63.941406 C 80.671875 63.554688 80.378906 63.195312 80.046875 62.867188 C 79.71875 62.539062 79.359375 62.242188 78.972656 61.984375 C 78.585938 61.726562 78.179688 61.507812 77.75 61.332031 C 77.320312 61.152344 76.875 61.019531 76.417969 60.925781 C 75.964844 60.835938 75.503906 60.789062 75.035156 60.789062 C 74.570312 60.789062 74.109375 60.835938 73.652344 60.925781 C 73.199219 61.019531 72.753906 61.152344 72.324219 61.332031 C 71.894531 61.507812 71.484375 61.726562 71.097656 61.984375 C 70.710938 62.242188 70.355469 62.539062 70.023438 62.867188 C 69.695312 63.195312 69.402344 63.554688 69.144531 63.941406 C 68.886719 64.328125 68.667969 64.734375 68.488281 65.167969 C 68.3125 65.597656 68.175781 66.039062 68.085938 66.496094 C 67.996094 66.953125 67.949219 67.414062 67.949219 67.878906 Z M 67.949219 103.316406 " fill-opacity="1" fill-rule="evenodd"/></svg>