<svg xmlns="http://www.w3.org/2000/svg" xmlns:xlink="http://www.w3.org/1999/xlink" width="50" zoomAndPan="magnify" viewBox="0 0 37.5 37.499999" height="50" preserveAspectRatio="xMidYMid meet" version="1.0"><defs><clipPath id="221177f735"><path d="M 0 0 L 37.007812 0 L 37.007812 37.007812 L 0 37.007812 Z M 0 0 " clip-rule="nonzero"/></clipPath><linearGradient x1="0" gradientTransform="matrix(0.75, 0, 0, 0.75, 0.0000005, 0)" y1="0" x2="49.34211" gradientUnits="userSpaceOnUse" y2="0" id="871cb99a21"><stop stop-opacity="1" stop-color="rgb(100%, 39.99939%, 76.899719%)" offset="0"/><stop stop-opacity="1" stop-color="rgb(100%, 40.180969%, 76.73645%)" offset="0.0078125"/><stop stop-opacity="1" stop-color="rgb(100%, 40.544128%, 76.412964%)" offset="0.015625"/><stop stop-opacity="1" stop-color="rgb(100%, 40.907288%, 76.089478%)" offset="0.0234375"/><stop stop-opacity="1" stop-color="rgb(100%, 41.270447%, 75.765991%)" offset="0.03125"/><stop stop-opacity="1" stop-color="rgb(100%, 41.633606%, 75.442505%)" offset="0.0390625"/><stop stop-opacity="1" stop-color="rgb(100%, 41.996765%, 75.117493%)" offset="0.046875"/><stop stop-opacity="1" stop-color="rgb(100%, 42.359924%, 74.794006%)" offset="0.0546875"/><stop stop-opacity="1" stop-color="rgb(100%, 42.723083%, 74.47052%)" offset="0.0625"/><stop stop-opacity="1" stop-color="rgb(100%, 43.086243%, 74.147034%)" offset="0.0703125"/><stop stop-opacity="1" stop-color="rgb(100%, 43.449402%, 73.823547%)" offset="0.078125"/><stop stop-opacity="1" stop-color="rgb(100%, 43.812561%, 73.498535%)" offset="0.0859375"/><stop stop-opacity="1" stop-color="rgb(100%, 44.17572%, 73.175049%)" offset="0.09375"/><stop stop-opacity="1" stop-color="rgb(100%, 44.538879%, 72.851562%)" offset="0.101562"/><stop stop-opacity="1" stop-color="rgb(100%, 44.902039%, 72.528076%)" offset="0.109375"/><stop stop-opacity="1" stop-color="rgb(100%, 45.265198%, 72.20459%)" offset="0.117188"/><stop stop-opacity="1" stop-color="rgb(100%, 45.628357%, 71.879578%)" offset="0.125"/><stop stop-opacity="1" stop-color="rgb(100%, 45.991516%, 71.556091%)" offset="0.132812"/><stop stop-opacity="1" stop-color="rgb(100%, 46.354675%, 71.232605%)" offset="0.140625"/><stop stop-opacity="1" stop-color="rgb(100%, 46.717834%, 70.909119%)" offset="0.148438"/><stop stop-opacity="1" stop-color="rgb(100%, 47.079468%, 70.584106%)" offset="0.15625"/><stop stop-opacity="1" stop-color="rgb(100%, 47.442627%, 70.26062%)" offset="0.164062"/><stop stop-opacity="1" stop-color="rgb(100%, 47.805786%, 69.937134%)" offset="0.171875"/><stop stop-opacity="1" stop-color="rgb(100%, 48.168945%, 69.613647%)" offset="0.179688"/><stop stop-opacity="1" stop-color="rgb(100%, 48.532104%, 69.290161%)" offset="0.1875"/><stop stop-opacity="1" stop-color="rgb(100%, 48.895264%, 68.965149%)" offset="0.195312"/><stop stop-opacity="1" stop-color="rgb(100%, 49.258423%, 68.641663%)" offset="0.203125"/><stop stop-opacity="1" stop-color="rgb(100%, 49.621582%, 68.318176%)" offset="0.210938"/><stop stop-opacity="1" stop-color="rgb(100%, 49.984741%, 67.99469%)" offset="0.21875"/><stop stop-opacity="1" stop-color="rgb(100%, 50.3479%, 67.671204%)" offset="0.226562"/><stop stop-opacity="1" stop-color="rgb(100%, 50.71106%, 67.346191%)" offset="0.234375"/><stop stop-opacity="1" stop-color="rgb(100%, 51.074219%, 67.022705%)" offset="0.242188"/><stop stop-opacity="1" stop-color="rgb(100%, 51.437378%, 66.699219%)" offset="0.25"/><stop stop-opacity="1" stop-color="rgb(100%, 51.800537%, 66.375732%)" offset="0.257812"/><stop stop-opacity="1" stop-color="rgb(100%, 52.163696%, 66.052246%)" offset="0.265625"/><stop stop-opacity="1" stop-color="rgb(100%, 52.526855%, 65.727234%)" offset="0.273437"/><stop stop-opacity="1" stop-color="rgb(100%, 52.890015%, 65.403748%)" offset="0.28125"/><stop stop-opacity="1" stop-color="rgb(100%, 53.253174%, 65.080261%)" offset="0.289063"/><stop stop-opacity="1" stop-color="rgb(100%, 53.616333%, 64.756775%)" offset="0.296875"/><stop stop-opacity="1" stop-color="rgb(100%, 53.979492%, 64.431763%)" offset="0.304688"/><stop stop-opacity="1" stop-color="rgb(100%, 54.342651%, 64.108276%)" offset="0.3125"/><stop stop-opacity="1" stop-color="rgb(100%, 54.705811%, 63.78479%)" offset="0.320312"/><stop stop-opacity="1" stop-color="rgb(100%, 55.06897%, 63.461304%)" offset="0.328125"/><stop stop-opacity="1" stop-color="rgb(100%, 55.432129%, 63.137817%)" offset="0.335937"/><stop stop-opacity="1" stop-color="rgb(100%, 55.795288%, 62.812805%)" offset="0.34375"/><stop stop-opacity="1" stop-color="rgb(100%, 56.158447%, 62.489319%)" offset="0.351563"/><stop stop-opacity="1" stop-color="rgb(100%, 56.521606%, 62.165833%)" offset="0.359375"/><stop stop-opacity="1" stop-color="rgb(100%, 56.884766%, 61.842346%)" offset="0.367188"/><stop stop-opacity="1" stop-color="rgb(100%, 57.247925%, 61.51886%)" offset="0.375"/><stop stop-opacity="1" stop-color="rgb(100%, 57.611084%, 61.193848%)" offset="0.382812"/><stop stop-opacity="1" stop-color="rgb(100%, 57.974243%, 60.870361%)" offset="0.390625"/><stop stop-opacity="1" stop-color="rgb(100%, 58.337402%, 60.546875%)" offset="0.398437"/><stop stop-opacity="1" stop-color="rgb(100%, 58.700562%, 60.223389%)" offset="0.40625"/><stop stop-opacity="1" stop-color="rgb(100%, 59.063721%, 59.899902%)" offset="0.414063"/><stop stop-opacity="1" stop-color="rgb(100%, 59.42688%, 59.57489%)" offset="0.421875"/><stop stop-opacity="1" stop-color="rgb(100%, 59.790039%, 59.251404%)" offset="0.429688"/><stop stop-opacity="1" stop-color="rgb(100%, 60.153198%, 58.927917%)" offset="0.4375"/><stop stop-opacity="1" stop-color="rgb(100%, 60.516357%, 58.604431%)" offset="0.445312"/><stop stop-opacity="1" stop-color="rgb(100%, 60.879517%, 58.279419%)" offset="0.453125"/><stop stop-opacity="1" stop-color="rgb(100%, 61.242676%, 57.955933%)" offset="0.460937"/><stop stop-opacity="1" stop-color="rgb(100%, 61.605835%, 57.632446%)" offset="0.46875"/><stop stop-opacity="1" stop-color="rgb(100%, 61.968994%, 57.30896%)" offset="0.476563"/><stop stop-opacity="1" stop-color="rgb(100%, 62.332153%, 56.985474%)" offset="0.484375"/><stop stop-opacity="1" stop-color="rgb(100%, 62.695312%, 56.660461%)" offset="0.492188"/><stop stop-opacity="1" stop-color="rgb(100%, 63.058472%, 56.336975%)" offset="0.5"/><stop stop-opacity="1" stop-color="rgb(100%, 63.421631%, 56.013489%)" offset="0.507812"/><stop stop-opacity="1" stop-color="rgb(100%, 63.78479%, 55.690002%)" offset="0.515625"/><stop stop-opacity="1" stop-color="rgb(100%, 64.146423%, 55.366516%)" offset="0.523438"/><stop stop-opacity="1" stop-color="rgb(100%, 64.509583%, 55.041504%)" offset="0.53125"/><stop stop-opacity="1" stop-color="rgb(100%, 64.872742%, 54.718018%)" offset="0.539062"/><stop stop-opacity="1" stop-color="rgb(100%, 65.235901%, 54.394531%)" offset="0.546875"/><stop stop-opacity="1" stop-color="rgb(100%, 65.59906%, 54.071045%)" offset="0.554687"/><stop stop-opacity="1" stop-color="rgb(100%, 65.962219%, 53.747559%)" offset="0.5625"/><stop stop-opacity="1" stop-color="rgb(100%, 66.325378%, 53.422546%)" offset="0.570313"/><stop stop-opacity="1" stop-color="rgb(100%, 66.688538%, 53.09906%)" offset="0.578125"/><stop stop-opacity="1" stop-color="rgb(100%, 67.051697%, 52.775574%)" offset="0.585938"/><stop stop-opacity="1" stop-color="rgb(100%, 67.414856%, 52.452087%)" offset="0.59375"/><stop stop-opacity="1" stop-color="rgb(100%, 67.778015%, 52.127075%)" offset="0.601562"/><stop stop-opacity="1" stop-color="rgb(100%, 68.141174%, 51.803589%)" offset="0.609375"/><stop stop-opacity="1" stop-color="rgb(100%, 68.504333%, 51.480103%)" offset="0.617188"/><stop stop-opacity="1" stop-color="rgb(100%, 68.867493%, 51.156616%)" offset="0.625"/><stop stop-opacity="1" stop-color="rgb(100%, 69.230652%, 50.83313%)" offset="0.632812"/><stop stop-opacity="1" stop-color="rgb(100%, 69.593811%, 50.508118%)" offset="0.640625"/><stop stop-opacity="1" stop-color="rgb(100%, 69.95697%, 50.184631%)" offset="0.648438"/><stop stop-opacity="1" stop-color="rgb(100%, 70.320129%, 49.861145%)" offset="0.65625"/><stop stop-opacity="1" stop-color="rgb(100%, 70.683289%, 49.537659%)" offset="0.664062"/><stop stop-opacity="1" stop-color="rgb(100%, 71.046448%, 49.214172%)" offset="0.671875"/><stop stop-opacity="1" stop-color="rgb(100%, 71.409607%, 48.88916%)" offset="0.679687"/><stop stop-opacity="1" stop-color="rgb(100%, 71.772766%, 48.565674%)" offset="0.6875"/><stop stop-opacity="1" stop-color="rgb(100%, 72.135925%, 48.242188%)" offset="0.695313"/><stop stop-opacity="1" stop-color="rgb(100%, 72.499084%, 47.918701%)" offset="0.703125"/><stop stop-opacity="1" stop-color="rgb(100%, 72.862244%, 47.595215%)" offset="0.710938"/><stop stop-opacity="1" stop-color="rgb(100%, 73.225403%, 47.270203%)" offset="0.71875"/><stop stop-opacity="1" stop-color="rgb(100%, 73.588562%, 46.946716%)" offset="0.726562"/><stop stop-opacity="1" stop-color="rgb(100%, 73.951721%, 46.62323%)" offset="0.734375"/><stop stop-opacity="1" stop-color="rgb(100%, 74.31488%, 46.299744%)" offset="0.742188"/><stop stop-opacity="1" stop-color="rgb(100%, 74.67804%, 45.974731%)" offset="0.75"/><stop stop-opacity="1" stop-color="rgb(100%, 75.041199%, 45.651245%)" offset="0.757812"/><stop stop-opacity="1" stop-color="rgb(100%, 75.404358%, 45.327759%)" offset="0.765625"/><stop stop-opacity="1" stop-color="rgb(100%, 75.767517%, 45.004272%)" offset="0.773438"/><stop stop-opacity="1" stop-color="rgb(100%, 76.130676%, 44.680786%)" offset="0.78125"/><stop stop-opacity="1" stop-color="rgb(100%, 76.493835%, 44.355774%)" offset="0.789062"/><stop stop-opacity="1" stop-color="rgb(100%, 76.856995%, 44.032288%)" offset="0.796875"/><stop stop-opacity="1" stop-color="rgb(100%, 77.220154%, 43.708801%)" offset="0.804687"/><stop stop-opacity="1" stop-color="rgb(100%, 77.583313%, 43.385315%)" offset="0.8125"/><stop stop-opacity="1" stop-color="rgb(100%, 77.946472%, 43.061829%)" offset="0.820313"/><stop stop-opacity="1" stop-color="rgb(100%, 78.309631%, 42.736816%)" offset="0.828125"/><stop stop-opacity="1" stop-color="rgb(100%, 78.672791%, 42.41333%)" offset="0.835938"/><stop stop-opacity="1" stop-color="rgb(100%, 79.03595%, 42.089844%)" offset="0.84375"/><stop stop-opacity="1" stop-color="rgb(100%, 79.399109%, 41.766357%)" offset="0.851562"/><stop stop-opacity="1" stop-color="rgb(100%, 79.762268%, 41.442871%)" offset="0.859375"/><stop stop-opacity="1" stop-color="rgb(100%, 80.125427%, 41.117859%)" offset="0.867188"/><stop stop-opacity="1" stop-color="rgb(100%, 80.488586%, 40.794373%)" offset="0.875"/><stop stop-opacity="1" stop-color="rgb(100%, 80.851746%, 40.470886%)" offset="0.882812"/><stop stop-opacity="1" stop-color="rgb(100%, 81.214905%, 40.1474%)" offset="0.890625"/><stop stop-opacity="1" stop-color="rgb(100%, 81.576538%, 39.822388%)" offset="0.898438"/><stop stop-opacity="1" stop-color="rgb(100%, 81.939697%, 39.498901%)" offset="0.90625"/><stop stop-opacity="1" stop-color="rgb(100%, 82.302856%, 39.175415%)" offset="0.914062"/><stop stop-opacity="1" stop-color="rgb(100%, 82.666016%, 38.851929%)" offset="0.921875"/><stop stop-opacity="1" stop-color="rgb(100%, 83.029175%, 38.528442%)" offset="0.929687"/><stop stop-opacity="1" stop-color="rgb(100%, 83.392334%, 38.20343%)" offset="0.9375"/><stop stop-opacity="1" stop-color="rgb(100%, 83.755493%, 37.879944%)" offset="0.945313"/><stop stop-opacity="1" stop-color="rgb(100%, 84.118652%, 37.556458%)" offset="0.953125"/><stop stop-opacity="1" stop-color="rgb(100%, 84.481812%, 37.232971%)" offset="0.960938"/><stop stop-opacity="1" stop-color="rgb(100%, 84.844971%, 36.909485%)" offset="0.96875"/><stop stop-opacity="1" stop-color="rgb(100%, 85.20813%, 36.584473%)" offset="0.976562"/><stop stop-opacity="1" stop-color="rgb(100%, 85.571289%, 36.260986%)" offset="0.984375"/><stop stop-opacity="1" stop-color="rgb(100%, 85.934448%, 35.9375%)" offset="0.992188"/><stop stop-opacity="1" stop-color="rgb(100%, 86.297607%, 35.614014%)" offset="1"/></linearGradient><clipPath id="7ac66c7cdf"><path d="M 1.011719 1.011719 L 36.261719 1.011719 L 36.261719 36.261719 L 1.011719 36.261719 Z M 1.011719 1.011719 " clip-rule="nonzero"/></clipPath></defs><g clip-path="url(#221177f735)"><path fill="#ffffff" d="M 0 0 L 37.5 0 L 37.5 37.5 L 0 37.5 Z M 0 0 " fill-opacity="1" fill-rule="nonzero"/><path fill="url(#871cb99a21)" d="M 0 0 L 0 37.007812 L 37.007812 37.007812 L 37.007812 0 Z M 0 0 " fill-rule="nonzero"/></g><g clip-path="url(#7ac66c7cdf)"><path fill="#ffffff" d="M 18.636719 1.011719 C 13.847656 1.011719 13.25 1.035156 11.371094 1.117188 C 9.496094 1.207031 8.214844 1.5 7.09375 1.9375 C 5.933594 2.386719 4.949219 2.992188 3.96875 3.96875 C 2.992188 4.949219 2.386719 5.933594 1.9375 7.09375 C 1.5 8.214844 1.203125 9.496094 1.117188 11.371094 C 1.03125 13.25 1.011719 13.847656 1.011719 18.636719 C 1.011719 23.425781 1.035156 24.023438 1.117188 25.902344 C 1.207031 27.777344 1.5 29.058594 1.9375 30.183594 C 2.386719 31.339844 2.992188 32.324219 3.96875 33.304688 C 4.949219 34.28125 5.933594 34.890625 7.09375 35.335938 C 8.21875 35.773438 9.496094 36.070312 11.371094 36.15625 C 13.25 36.246094 13.847656 36.261719 18.636719 36.261719 C 23.425781 36.261719 24.023438 36.242188 25.902344 36.15625 C 27.777344 36.070312 29.058594 35.773438 30.183594 35.335938 C 31.339844 34.886719 32.324219 34.28125 33.304688 33.304688 C 34.28125 32.324219 34.890625 31.34375 35.335938 30.183594 C 35.773438 29.058594 36.070312 27.777344 36.15625 25.902344 C 36.246094 24.023438 36.261719 23.425781 36.261719 18.636719 C 36.261719 13.847656 36.242188 13.25 36.15625 11.371094 C 36.070312 9.496094 35.773438 8.214844 35.335938 7.09375 C 34.886719 5.933594 34.28125 4.949219 33.304688 3.96875 C 32.324219 2.992188 31.34375 2.386719 30.183594 1.9375 C 29.058594 1.5 27.777344 1.203125 25.902344 1.117188 C 24.023438 1.03125 23.425781 1.011719 18.636719 1.011719 Z M 18.636719 4.183594 C 23.34375 4.183594 23.902344 4.207031 25.761719 4.289062 C 27.480469 4.371094 28.410156 4.65625 29.03125 4.898438 C 29.855469 5.21875 30.441406 5.597656 31.0625 6.214844 C 31.675781 6.832031 32.058594 7.417969 32.378906 8.242188 C 32.617188 8.863281 32.90625 9.796875 32.984375 11.515625 C 33.066406 13.375 33.085938 13.929688 33.085938 18.636719 C 33.085938 23.34375 33.066406 23.902344 32.976562 25.761719 C 32.890625 27.480469 32.601562 28.410156 32.359375 29.03125 C 32.03125 29.855469 31.65625 30.441406 31.039062 31.0625 C 30.425781 31.675781 29.828125 32.058594 29.011719 32.378906 C 28.394531 32.617188 27.449219 32.90625 25.730469 32.984375 C 23.859375 33.066406 23.308594 33.085938 18.59375 33.085938 C 13.878906 33.085938 13.328125 33.066406 11.457031 32.976562 C 9.738281 32.890625 8.789062 32.601562 8.171875 32.359375 C 7.335938 32.03125 6.761719 31.65625 6.148438 31.039062 C 5.527344 30.425781 5.132812 29.828125 4.824219 29.011719 C 4.582031 28.394531 4.296875 27.449219 4.207031 25.730469 C 4.140625 23.878906 4.117188 23.308594 4.117188 18.617188 C 4.117188 13.921875 4.140625 13.347656 4.207031 11.476562 C 4.296875 9.757812 4.582031 8.8125 4.824219 8.195312 C 5.132812 7.359375 5.527344 6.785156 6.148438 6.167969 C 6.761719 5.550781 7.335938 5.15625 8.171875 4.847656 C 8.789062 4.605469 9.714844 4.316406 11.433594 4.230469 C 13.308594 4.164062 13.859375 4.140625 18.570312 4.140625 Z M 18.636719 9.585938 C 13.636719 9.585938 9.585938 13.640625 9.585938 18.636719 C 9.585938 23.636719 13.640625 27.6875 18.636719 27.6875 C 23.636719 27.6875 27.6875 23.632812 27.6875 18.636719 C 27.6875 13.636719 23.632812 9.585938 18.636719 9.585938 Z M 18.636719 24.511719 C 15.390625 24.511719 12.761719 21.882812 12.761719 18.636719 C 12.761719 15.390625 15.390625 12.761719 18.636719 12.761719 C 21.882812 12.761719 24.511719 15.390625 24.511719 18.636719 C 24.511719 21.882812 21.882812 24.511719 18.636719 24.511719 Z M 30.160156 9.230469 C 30.160156 10.398438 29.210938 11.34375 28.046875 11.34375 C 26.878906 11.34375 25.929688 10.394531 25.929688 9.230469 C 25.929688 8.0625 26.878906 7.117188 28.046875 7.117188 C 29.210938 7.113281 30.160156 8.0625 30.160156 9.230469 Z M 30.160156 9.230469 " fill-opacity="1" fill-rule="nonzero"/></g></svg>