<svg xmlns="http://www.w3.org/2000/svg" xmlns:xlink="http://www.w3.org/1999/xlink" width="50" zoomAndPan="magnify" viewBox="0 0 37.5 37.499999" height="50" preserveAspectRatio="xMidYMid meet" version="1.0"><defs><clipPath id="50901dae6b"><path d="M 0 0 L 37.007812 0 L 37.007812 37.007812 L 0 37.007812 Z M 0 0 " clip-rule="nonzero"/></clipPath></defs><g clip-path="url(#50901dae6b)"><path fill="#ffffff" d="M 0 0 L 37.5 0 L 37.5 37.5 L 0 37.5 Z M 0 0 " fill-opacity="1" fill-rule="nonzero"/><path fill="#2962ff" d="M 32.890625 32.898438 L 27.003906 32.898438 L 27.003906 23.675781 C 27.003906 21.476562 26.960938 18.644531 23.9375 18.644531 C 20.867188 18.644531 20.398438 21.039062 20.398438 23.511719 L 20.398438 32.898438 L 14.511719 32.898438 L 14.511719 13.929688 L 20.167969 13.929688 L 20.167969 16.515625 L 20.242188 16.515625 C 21.035156 15.027344 22.953125 13.453125 25.824219 13.453125 C 31.789062 13.453125 32.890625 17.378906 32.890625 22.488281 Z M 7.863281 11.335938 C 5.96875 11.335938 4.449219 9.800781 4.449219 7.914062 C 4.449219 6.03125 5.972656 4.5 7.863281 4.5 C 9.753906 4.5 11.28125 6.03125 11.28125 7.914062 C 11.28125 9.800781 9.75 11.335938 7.863281 11.335938 Z M 10.816406 32.898438 L 4.914062 32.898438 L 4.914062 13.929688 L 10.816406 13.929688 Z M 35.835938 -0.976562 L 1.957031 -0.976562 C 0.335938 -0.976562 -0.976562 0.308594 -0.976562 1.886719 L -0.976562 35.910156 C -0.976562 37.496094 0.335938 38.773438 1.957031 38.773438 L 35.832031 38.773438 C 37.449219 38.773438 38.773438 37.496094 38.773438 35.910156 L 38.773438 1.886719 C 38.773438 0.308594 37.449219 -0.976562 35.832031 -0.976562 Z M 35.835938 -0.976562 " fill-opacity="1" fill-rule="nonzero"/></g></svg>