<svg xmlns="http://www.w3.org/2000/svg" xmlns:xlink="http://www.w3.org/1999/xlink" width="50" zoomAndPan="magnify" viewBox="0 0 37.5 37.499999" height="50" preserveAspectRatio="xMidYMid meet" version="1.0"><defs><clipPath id="a877619aa9"><path d="M 0 0 L 37.007812 0 L 37.007812 37.007812 L 0 37.007812 Z M 0 0 " clip-rule="nonzero"/></clipPath><clipPath id="060782e624"><path d="M 0 0 L 9.148438 0 L 9.148438 7.351562 L 0 7.351562 Z M 0 0 " clip-rule="nonzero"/></clipPath><clipPath id="e654c8517e"><path d="M 0 33.75 L 6.601562 33.75 L 6.601562 37.007812 L 0 37.007812 Z M 0 33.75 " clip-rule="nonzero"/></clipPath><clipPath id="f94c100638"><path d="M 33.75 0 L 37.007812 0 L 37.007812 7.351562 L 33.75 7.351562 Z M 33.75 0 " clip-rule="nonzero"/></clipPath><clipPath id="abf8435740"><path d="M 32.585938 31.875 L 37.007812 31.875 L 37.007812 37.007812 L 32.585938 37.007812 Z M 32.585938 31.875 " clip-rule="nonzero"/></clipPath></defs><g clip-path="url(#a877619aa9)"><path fill="#ffffff" d="M 0 0 L 37.5 0 L 37.5 217.5 L 0 217.5 Z M 0 0 " fill-opacity="1" fill-rule="nonzero"/><path fill="#ffffff" d="M 0 0 L 37.5 0 L 37.5 37.5 L 0 37.5 Z M 0 0 " fill-opacity="1" fill-rule="nonzero"/><path fill="#ff4300" d="M 18.789062 -6.335938 C 17.964844 -6.335938 17.144531 -6.296875 16.324219 -6.214844 C 15.507812 -6.136719 14.691406 -6.015625 13.886719 -5.855469 C 13.078125 -5.695312 12.28125 -5.496094 11.492188 -5.253906 C 10.707031 -5.015625 9.933594 -4.738281 9.171875 -4.425781 C 8.414062 -4.109375 7.667969 -3.757812 6.945312 -3.371094 C 6.21875 -2.984375 5.511719 -2.558594 4.828125 -2.101562 C 4.144531 -1.644531 3.484375 -1.15625 2.847656 -0.632812 C 2.210938 -0.113281 1.601562 0.441406 1.019531 1.019531 C 0.441406 1.601562 -0.113281 2.210938 -0.632812 2.847656 C -1.15625 3.484375 -1.644531 4.144531 -2.101562 4.828125 C -2.558594 5.511719 -2.984375 6.21875 -3.371094 6.945312 C -3.757812 7.667969 -4.109375 8.414062 -4.425781 9.171875 C -4.738281 9.933594 -5.015625 10.707031 -5.253906 11.492188 C -5.496094 12.28125 -5.695312 13.078125 -5.855469 13.886719 C -6.015625 14.691406 -6.136719 15.507812 -6.214844 16.324219 C -6.296875 17.144531 -6.335938 17.964844 -6.335938 18.789062 C -6.335938 19.609375 -6.296875 20.429688 -6.214844 21.25 C -6.136719 22.070312 -6.015625 22.882812 -5.855469 23.6875 C -5.695312 24.496094 -5.496094 25.292969 -5.253906 26.082031 C -5.015625 26.867188 -4.738281 27.640625 -4.425781 28.402344 C -4.109375 29.164062 -3.757812 29.90625 -3.371094 30.632812 C -2.984375 31.355469 -2.558594 32.0625 -2.101562 32.746094 C -1.644531 33.429688 -1.15625 34.089844 -0.632812 34.726562 C -0.113281 35.363281 0.441406 35.972656 1.019531 36.554688 C 1.601562 37.136719 2.210938 37.6875 2.847656 38.210938 C 3.484375 38.730469 4.144531 39.222656 4.828125 39.679688 C 5.511719 40.136719 6.21875 40.558594 6.945312 40.945312 C 7.667969 41.332031 8.414062 41.683594 9.171875 42 C 9.933594 42.316406 10.707031 42.589844 11.492188 42.832031 C 12.28125 43.070312 13.078125 43.269531 13.886719 43.429688 C 14.691406 43.589844 15.507812 43.710938 16.324219 43.792969 C 17.144531 43.871094 17.964844 43.914062 18.789062 43.914062 C 19.609375 43.914062 20.429688 43.871094 21.25 43.792969 C 22.070312 43.710938 22.882812 43.589844 23.6875 43.429688 C 24.496094 43.269531 25.292969 43.070312 26.082031 42.832031 C 26.867188 42.589844 27.640625 42.316406 28.402344 42 C 29.164062 41.683594 29.90625 41.332031 30.632812 40.945312 C 31.355469 40.558594 32.0625 40.136719 32.746094 39.679688 C 33.429688 39.222656 34.089844 38.730469 34.726562 38.210938 C 35.363281 37.6875 35.972656 37.136719 36.554688 36.554688 C 37.136719 35.972656 37.6875 35.363281 38.210938 34.726562 C 38.730469 34.089844 39.222656 33.429688 39.679688 32.746094 C 40.136719 32.0625 40.558594 31.355469 40.945312 30.632812 C 41.332031 29.90625 41.683594 29.164062 42 28.402344 C 42.316406 27.640625 42.589844 26.867188 42.832031 26.082031 C 43.070312 25.292969 43.269531 24.496094 43.429688 23.6875 C 43.589844 22.882812 43.710938 22.070312 43.792969 21.25 C 43.871094 20.429688 43.914062 19.609375 43.914062 18.789062 C 43.914062 17.964844 43.871094 17.144531 43.792969 16.324219 C 43.710938 15.507812 43.589844 14.691406 43.429688 13.886719 C 43.269531 13.078125 43.070312 12.28125 42.832031 11.492188 C 42.589844 10.707031 42.316406 9.933594 42 9.171875 C 41.683594 8.414062 41.332031 7.667969 40.945312 6.945312 C 40.558594 6.21875 40.136719 5.511719 39.679688 4.828125 C 39.222656 4.144531 38.730469 3.484375 38.210938 2.847656 C 37.6875 2.210938 37.136719 1.601562 36.554688 1.019531 C 35.972656 0.441406 35.363281 -0.113281 34.726562 -0.632812 C 34.089844 -1.15625 33.429688 -1.644531 32.746094 -2.101562 C 32.0625 -2.558594 31.355469 -2.984375 30.632812 -3.371094 C 29.90625 -3.757812 29.164062 -4.109375 28.402344 -4.425781 C 27.640625 -4.738281 26.867188 -5.015625 26.082031 -5.253906 C 25.292969 -5.496094 24.496094 -5.695312 23.6875 -5.855469 C 22.882812 -6.015625 22.070312 -6.136719 21.25 -6.214844 C 20.429688 -6.296875 19.609375 -6.335938 18.789062 -6.335938 Z M 29.277344 3.59375 C 30.71875 3.59375 31.894531 4.769531 31.894531 6.210938 C 31.890625 6.550781 31.824219 6.875 31.691406 7.191406 C 31.5625 7.503906 31.378906 7.78125 31.140625 8.023438 C 30.898438 8.261719 30.625 8.453125 30.3125 8.585938 C 30 8.71875 29.675781 8.792969 29.335938 8.800781 C 28.996094 8.804688 28.667969 8.75 28.351562 8.628906 C 28.03125 8.507812 27.75 8.335938 27.5 8.105469 C 27.25 7.875 27.054688 7.605469 26.910156 7.296875 C 26.765625 6.988281 26.683594 6.667969 26.664062 6.328125 L 21.226562 5.183594 L 19.550781 13.027344 C 23.371094 13.175781 26.839844 14.351562 29.339844 16.144531 C 29.984375 15.496094 30.867188 15.113281 31.863281 15.113281 C 33.890625 15.113281 35.539062 16.761719 35.539062 18.789062 C 35.539062 20.285156 34.625 21.578125 33.421875 22.167969 C 33.484375 22.527344 33.511719 22.890625 33.511719 23.253906 C 33.511719 28.894531 26.957031 33.453125 18.847656 33.453125 C 10.734375 33.453125 4.179688 28.894531 4.179688 23.253906 C 4.179688 22.871094 4.214844 22.488281 4.273438 22.136719 C 3.609375 21.84375 3.082031 21.394531 2.6875 20.785156 C 2.292969 20.179688 2.09375 19.511719 2.097656 18.789062 C 2.097656 16.761719 3.742188 15.113281 5.769531 15.113281 C 6.738281 15.113281 7.648438 15.527344 8.296875 16.140625 C 10.824219 14.292969 14.320312 13.148438 18.226562 13.027344 L 20.082031 4.273438 C 20.128906 4.097656 20.226562 3.960938 20.375 3.859375 C 20.53125 3.769531 20.695312 3.738281 20.871094 3.769531 L 26.957031 5.0625 C 27.167969 4.613281 27.480469 4.253906 27.902344 3.988281 C 28.320312 3.722656 28.78125 3.59375 29.277344 3.59375 Z M 13.03125 18.789062 C 11.585938 18.789062 10.414062 19.964844 10.414062 21.40625 C 10.414062 22.84375 11.585938 24.019531 13.03125 24.019531 C 14.46875 24.019531 15.644531 22.84375 15.644531 21.402344 C 15.644531 19.960938 14.46875 18.789062 13.027344 18.789062 Z M 24.546875 18.789062 C 23.105469 18.789062 21.933594 19.960938 21.933594 21.40625 C 21.933594 22.84375 23.105469 24.019531 24.546875 24.019531 C 25.988281 24.019531 27.164062 22.84375 27.164062 21.402344 C 27.164062 19.964844 25.984375 18.789062 24.546875 18.789062 Z M 13.101562 27.140625 C 12.914062 27.140625 12.75 27.207031 12.617188 27.339844 C 12.484375 27.472656 12.417969 27.632812 12.417969 27.824219 C 12.417969 28.011719 12.484375 28.171875 12.617188 28.308594 C 14.378906 30.070312 17.816406 30.21875 18.816406 30.21875 C 19.816406 30.21875 23.222656 30.101562 25.015625 28.308594 C 25.144531 28.175781 25.210938 28.015625 25.222656 27.835938 C 25.234375 27.652344 25.1875 27.484375 25.078125 27.339844 C 24.941406 27.207031 24.78125 27.140625 24.589844 27.140625 C 24.402344 27.140625 24.238281 27.207031 24.105469 27.339844 C 22.960938 28.453125 20.578125 28.867188 18.847656 28.867188 C 17.113281 28.867188 14.703125 28.457031 13.585938 27.339844 C 13.453125 27.203125 13.289062 27.136719 13.101562 27.140625 Z M 13.101562 27.140625 " fill-opacity="1" fill-rule="nonzero"/></g><g clip-path="url(#060782e624)"><path fill="#ff4300" d="M -2.101562 -3.898438 L 9.148438 -3.898438 L 9.148438 7.351562 L -2.101562 7.351562 Z M -2.101562 -3.898438 " fill-opacity="1" fill-rule="nonzero"/></g><g clip-path="url(#e654c8517e)"><path fill="#ff4300" d="M -4.648438 33.75 L 6.601562 33.75 L 6.601562 45 L -4.648438 45 Z M -4.648438 33.75 " fill-opacity="1" fill-rule="nonzero"/></g><g clip-path="url(#f94c100638)"><path fill="#ff4300" d="M 33.75 -3.898438 L 45 -3.898438 L 45 7.351562 L 33.75 7.351562 Z M 33.75 -3.898438 " fill-opacity="1" fill-rule="nonzero"/></g><g clip-path="url(#abf8435740)"><path fill="#ff4300" d="M 32.585938 31.875 L 43.835938 31.875 L 43.835938 43.125 L 32.585938 43.125 Z M 32.585938 31.875 " fill-opacity="1" fill-rule="nonzero"/></g></svg>