<svg xmlns="http://www.w3.org/2000/svg" xmlns:xlink="http://www.w3.org/1999/xlink" width="200" zoomAndPan="magnify" viewBox="0 0 150 149.999998" height="200" preserveAspectRatio="xMidYMid meet" version="1.0"><defs><clipPath id="de595e842f"><path d="M 15 11.453125 L 138.75 11.453125 L 138.75 135.203125 L 15 135.203125 Z M 15 11.453125 " clip-rule="nonzero"/></clipPath><clipPath id="482fcb080c"><path d="M 11.453125 8.726562 L 141.203125 8.726562 L 141.203125 138.476562 L 11.453125 138.476562 Z M 11.453125 8.726562 " clip-rule="nonzero"/></clipPath><clipPath id="86d6f51ddb"><path d="M 76.328125 8.726562 C 40.5 8.726562 11.453125 37.773438 11.453125 73.601562 C 11.453125 109.433594 40.5 138.476562 76.328125 138.476562 C 112.160156 138.476562 141.203125 109.433594 141.203125 73.601562 C 141.203125 37.773438 112.160156 8.726562 76.328125 8.726562 " clip-rule="nonzero"/></clipPath><clipPath id="0cfb6493c2"><path d="M 81.136719 37.363281 L 103.226562 37.363281 L 103.226562 59.453125 L 81.136719 59.453125 Z M 81.136719 37.363281 " clip-rule="nonzero"/></clipPath><clipPath id="845326dea6"><path d="M 92.183594 37.363281 C 86.082031 37.363281 81.136719 42.308594 81.136719 48.410156 C 81.136719 54.507812 86.082031 59.453125 92.183594 59.453125 C 98.28125 59.453125 103.226562 54.507812 103.226562 48.410156 C 103.226562 42.308594 98.28125 37.363281 92.183594 37.363281 " clip-rule="nonzero"/></clipPath><clipPath id="5964abc4fb"><path d="M 81.136719 90.273438 L 103.226562 90.273438 L 103.226562 112.363281 L 81.136719 112.363281 Z M 81.136719 90.273438 " clip-rule="nonzero"/></clipPath><clipPath id="bb98be4dc6"><path d="M 92.183594 90.273438 C 86.082031 90.273438 81.136719 95.21875 81.136719 101.316406 C 81.136719 107.417969 86.082031 112.363281 92.183594 112.363281 C 98.28125 112.363281 103.226562 107.417969 103.226562 101.316406 C 103.226562 95.21875 98.28125 90.273438 92.183594 90.273438 " clip-rule="nonzero"/></clipPath><clipPath id="431739afab"><path d="M 40.226562 62.589844 L 62.316406 62.589844 L 62.316406 84.683594 L 40.226562 84.683594 Z M 40.226562 62.589844 " clip-rule="nonzero"/></clipPath><clipPath id="1aeacf972e"><path d="M 51.273438 62.589844 C 45.171875 62.589844 40.226562 67.535156 40.226562 73.636719 C 40.226562 79.738281 45.171875 84.683594 51.273438 84.683594 C 57.371094 84.683594 62.316406 79.738281 62.316406 73.636719 C 62.316406 67.535156 57.371094 62.589844 51.273438 62.589844 " clip-rule="nonzero"/></clipPath></defs><g clip-path="url(#de595e842f)"><path stroke-linecap="butt" transform="matrix(0.241699, 0, 0, 0.241699, 15, 11.454547)" fill-opacity="1" fill="#ffffff" fill-rule="nonzero" stroke-linejoin="miter" d="M 256.000013 -0.00588174 C 114.618187 -0.00588174 -0.00000155152 114.612307 -0.00000155152 255.994133 C -0.00000155152 397.375959 114.618187 511.994147 256.000013 511.994147 C 397.381839 511.994147 512.000027 397.375959 512.000027 255.994133 C 512.000027 114.612307 397.381839 -0.00588174 256.000013 -0.00588174 Z M 256.000013 469.327478 C 138.181824 469.327478 42.666668 373.812321 42.666668 255.994133 C 42.666668 138.175944 138.181824 42.660787 256.000013 42.660787 C 373.818201 42.660787 469.333358 138.175944 469.333358 255.994133 C 469.333358 373.812321 373.818201 469.327478 256.000013 469.327478 Z M 256.000013 469.327478 " stroke="#ffffff" stroke-width="0.005" stroke-opacity="1" stroke-miterlimit="4"/></g><path stroke-linecap="butt" transform="matrix(0.241699, 0, 0, 0.241699, 15, 11.454547)" fill-opacity="1" fill="#ffffff" fill-rule="nonzero" stroke-linejoin="miter" d="M 320.000017 213.327464 C 355.361635 213.327464 384.00002 184.689078 384.00002 149.32746 C 384.00002 113.982003 355.361635 85.327456 320.000017 85.327456 C 288.54951 85.327456 262.432337 108.002205 257.034356 137.885035 L 176.71112 198.135544 C 168.404048 194.208271 159.12728 191.994129 149.33334 191.994129 C 113.971722 191.994129 85.333337 220.648676 85.333337 255.994133 C 85.333337 291.355751 113.971722 319.994136 149.33334 319.994136 C 159.12728 319.994136 168.404048 317.796156 176.71112 313.868883 L 257.034356 374.10323 C 262.432337 404.002222 288.54951 426.660809 320.000017 426.660809 C 355.361635 426.660809 384.00002 398.022424 384.00002 362.660805 C 384.00002 327.315349 355.361635 298.660802 320.000017 298.660802 C 297.519207 298.660802 277.785873 310.248681 266.359609 327.767874 L 207.191929 283.388074 C 211.119202 275.081002 213.333344 265.804234 213.333344 255.994133 C 213.333344 246.200193 211.119202 236.923425 207.191929 228.616353 L 266.359609 184.236553 C 277.769711 201.755746 297.519207 213.327464 320.000017 213.327464 Z M 320.000017 127.994125 C 331.797997 127.994125 341.333351 137.545641 341.333351 149.32746 C 341.333351 161.12544 331.797997 170.660795 320.000017 170.660795 C 308.202036 170.660795 298.666682 161.12544 298.666682 149.32746 C 298.666682 137.545641 308.202036 127.994125 320.000017 127.994125 Z M 128.000006 255.994133 C 128.000006 244.212314 137.53536 234.660798 149.33334 234.660798 C 154.715159 234.660798 159.612129 236.664839 163.361624 239.945647 C 163.442432 240.026455 163.52324 240.091102 163.587886 240.155748 C 167.935361 244.066859 170.666675 249.707264 170.666675 255.994133 C 170.666675 262.184032 168.01617 267.743628 163.814149 271.638578 C 163.539402 271.881002 163.264654 272.139588 162.989907 272.398174 C 159.288896 275.468881 154.537381 277.327467 149.33334 277.327467 C 137.53536 277.327467 128.000006 267.792113 128.000006 255.994133 Z M 320.000017 341.327471 C 331.797997 341.327471 341.333351 350.878987 341.333351 362.660805 C 341.333351 374.458786 331.797997 383.99414 320.000017 383.99414 C 308.202036 383.99414 298.666682 374.458786 298.666682 362.660805 C 298.666682 350.878987 308.202036 341.327471 320.000017 341.327471 Z M 320.000017 341.327471 " stroke="#ffffff" stroke-width="0.005" stroke-opacity="1" stroke-miterlimit="4"/><g clip-path="url(#482fcb080c)"><g clip-path="url(#86d6f51ddb)"><path stroke-linecap="butt" transform="matrix(0.749661, 0, 0, 0.749661, 11.454546, 8.727274)" fill="none" stroke-linejoin="miter" d="M 86.537176 -0.00094927 C 38.744765 -0.00094927 -0.00189534 38.745711 -0.00189534 86.538122 C -0.00189534 134.335743 38.744765 173.077192 86.537176 173.077192 C 134.334797 173.077192 173.076246 134.335743 173.076246 86.538122 C 173.076246 38.745711 134.334797 -0.00094927 86.537176 -0.00094927 " stroke="#ffffff" stroke-width="18" stroke-opacity="1" stroke-miterlimit="4"/></g></g><g clip-path="url(#0cfb6493c2)"><g clip-path="url(#845326dea6)"><path fill="#ffffff" d="M 81.136719 37.363281 L 103.226562 37.363281 L 103.226562 59.453125 L 81.136719 59.453125 Z M 81.136719 37.363281 " fill-opacity="1" fill-rule="nonzero"/></g></g><g clip-path="url(#5964abc4fb)"><g clip-path="url(#bb98be4dc6)"><path fill="#ffffff" d="M 81.136719 90.273438 L 103.226562 90.273438 L 103.226562 112.363281 L 81.136719 112.363281 Z M 81.136719 90.273438 " fill-opacity="1" fill-rule="nonzero"/></g></g><g clip-path="url(#431739afab)"><g clip-path="url(#1aeacf972e)"><path fill="#ffffff" d="M 40.226562 62.589844 L 62.316406 62.589844 L 62.316406 84.683594 L 40.226562 84.683594 Z M 40.226562 62.589844 " fill-opacity="1" fill-rule="nonzero"/></g></g></svg>