<svg xmlns="http://www.w3.org/2000/svg" xmlns:xlink="http://www.w3.org/1999/xlink" width="50" zoomAndPan="magnify" viewBox="0 0 37.5 37.499999" height="50" preserveAspectRatio="xMidYMid meet" version="1.0"><defs><clipPath id="31a886eb90"><path d="M 0 0 L 37.007812 0 L 37.007812 37.007812 L 0 37.007812 Z M 0 0 " clip-rule="nonzero"/></clipPath><clipPath id="f24df5903a"><path d="M 4 1.574219 L 34 1.574219 L 34 36.074219 L 4 36.074219 Z M 4 1.574219 " clip-rule="nonzero"/></clipPath></defs><g clip-path="url(#31a886eb90)"><path fill="#ffffff" d="M 0 0 L 37.5 0 L 37.5 37.5 L 0 37.5 Z M 0 0 " fill-opacity="1" fill-rule="nonzero"/><path fill="#a6a6a6" d="M 0 0 L 37.5 0 L 37.5 37.5 L 0 37.5 Z M 0 0 " fill-opacity="1" fill-rule="nonzero"/></g><g clip-path="url(#f24df5903a)"><path fill="#ffffff" d="M 23.953125 1.574219 L 21.480469 3.410156 L 30.667969 15.757812 L 33.132812 13.921875 Z M 18.289062 6.488281 L 16.324219 8.851562 L 28.144531 18.699219 L 30.113281 16.335938 Z M 13.761719 12.90625 L 12.460938 15.695312 L 26.410156 22.1875 L 27.707031 19.398438 Z M 11.101562 19.894531 L 10.472656 22.902344 L 25.527344 26.066406 L 26.160156 23.058594 L 11.101562 19.890625 Z M 4.066406 23.8125 L 4.066406 36.074219 L 31.652344 36.074219 L 31.652344 23.8125 L 28.585938 23.8125 L 28.585938 33.007812 L 7.128906 33.007812 L 7.128906 23.816406 L 4.066406 23.816406 Z M 10.199219 26.878906 L 10.199219 29.941406 L 25.523438 29.941406 L 25.523438 26.878906 L 10.195312 26.878906 Z M 10.199219 26.878906 " fill-opacity="1" fill-rule="nonzero"/></g></svg>