<svg xmlns="http://www.w3.org/2000/svg" xmlns:xlink="http://www.w3.org/1999/xlink" width="50" zoomAndPan="magnify" viewBox="0 0 37.5 37.499999" height="50" preserveAspectRatio="xMidYMid meet" version="1.0"><defs><clipPath id="09411c8bff"><path d="M 0 0 L 37.007812 0 L 37.007812 37.007812 L 0 37.007812 Z M 0 0 " clip-rule="nonzero"/></clipPath><clipPath id="3945d4de47"><path d="M 0 0 L 8.101562 0 L 8.101562 8.25 L 0 8.25 Z M 0 0 " clip-rule="nonzero"/></clipPath><clipPath id="bef9678c5c"><path d="M 0 29.960938 L 7.125 29.960938 L 7.125 37.007812 L 0 37.007812 Z M 0 29.960938 " clip-rule="nonzero"/></clipPath><clipPath id="3f87d2fe2e"><path d="M 3.75 33.75 L 16.5 33.75 L 16.5 37.007812 L 3.75 37.007812 Z M 3.75 33.75 " clip-rule="nonzero"/></clipPath><clipPath id="869f113b61"><path d="M 29.210938 28.273438 L 37.007812 28.273438 L 37.007812 37.007812 L 29.210938 37.007812 Z M 29.210938 28.273438 " clip-rule="nonzero"/></clipPath><clipPath id="3cc525acb9"><path d="M 32.476562 0 L 37.007812 0 L 37.007812 5.476562 L 32.476562 5.476562 Z M 32.476562 0 " clip-rule="nonzero"/></clipPath></defs><g clip-path="url(#09411c8bff)"><path fill="#ffffff" d="M 0 0 L 37.5 0 L 37.5 37.5 L 0 37.5 Z M 0 0 " fill-opacity="1" fill-rule="nonzero"/><path fill="#ffffff" d="M 0 0 L 37.5 0 L 37.5 37.5 L 0 37.5 Z M 0 0 " fill-opacity="1" fill-rule="nonzero"/><path fill="#2a475e" d="M 19.574219 -3.9375 C 7.757812 -3.9375 -1.929688 5.175781 -2.847656 16.757812 L 9.214844 21.742188 C 10.234375 21.046875 11.46875 20.632812 12.796875 20.632812 C 12.917969 20.632812 13.03125 20.640625 13.152344 20.644531 L 18.515625 12.878906 L 18.515625 12.769531 C 18.515625 8.089844 22.316406 4.285156 27 4.285156 C 31.675781 4.285156 35.480469 8.09375 35.480469 12.773438 C 35.480469 17.453125 31.675781 21.257812 27 21.257812 L 26.800781 21.257812 L 19.160156 26.71875 C 19.160156 26.8125 19.167969 26.914062 19.167969 27.015625 C 19.167969 30.53125 16.324219 33.382812 12.808594 33.382812 C 9.746094 33.382812 7.15625 31.183594 6.5625 28.269531 L -2.070312 24.695312 C 0.605469 34.136719 9.273438 41.0625 19.574219 41.0625 C 32 41.0625 42.070312 30.988281 42.070312 18.5625 C 42.070312 6.136719 31.996094 -3.9375 19.574219 -3.9375 Z M 11.25 30.207031 L 8.488281 29.0625 C 8.980469 30.082031 9.828125 30.9375 10.953125 31.40625 C 13.382812 32.417969 16.1875 31.265625 17.199219 28.828125 C 17.691406 27.648438 17.695312 26.355469 17.207031 25.171875 C 16.722656 23.992188 15.800781 23.070312 14.625 22.582031 C 13.457031 22.09375 12.207031 22.113281 11.105469 22.523438 L 13.960938 23.707031 C 15.753906 24.457031 16.601562 26.519531 15.851562 28.308594 C 15.109375 30.101562 13.046875 30.953125 11.25 30.207031 Z M 32.652344 12.761719 C 32.652344 9.648438 30.117188 7.109375 27 7.109375 C 23.878906 7.109375 21.347656 9.648438 21.347656 12.761719 C 21.347656 15.886719 23.878906 18.417969 27 18.417969 C 30.117188 18.417969 32.652344 15.886719 32.652344 12.761719 Z M 22.765625 12.753906 C 22.765625 10.40625 24.664062 8.503906 27.011719 8.503906 C 29.355469 8.503906 31.261719 10.40625 31.261719 12.753906 C 31.261719 15.097656 29.355469 17 27.011719 17 C 24.664062 17 22.765625 15.097656 22.765625 12.753906 Z M 22.765625 12.753906 " fill-opacity="1" fill-rule="nonzero"/></g><g clip-path="url(#3945d4de47)"><path fill="#2a475e" d="M -3.148438 -3 L 8.101562 -3 L 8.101562 8.25 L -3.148438 8.25 Z M -3.148438 -3 " fill-opacity="1" fill-rule="nonzero"/></g><g clip-path="url(#bef9678c5c)"><path fill="#2a475e" d="M -5.625 29.960938 L 7.207031 29.960938 L 7.207031 40.859375 L -5.625 40.859375 Z M -5.625 29.960938 " fill-opacity="1" fill-rule="nonzero"/></g><g clip-path="url(#3f87d2fe2e)"><path fill="#2a475e" d="M 3.75 33.75 L 16.582031 33.75 L 16.582031 44.648438 L 3.75 44.648438 Z M 3.75 33.75 " fill-opacity="1" fill-rule="nonzero"/></g><g clip-path="url(#869f113b61)"><path fill="#2a475e" d="M 29.210938 28.273438 L 42.042969 28.273438 L 42.042969 39.171875 L 29.210938 39.171875 Z M 29.210938 28.273438 " fill-opacity="1" fill-rule="nonzero"/></g><g clip-path="url(#3cc525acb9)"><path fill="#2a475e" d="M 32.476562 -5.476562 L 45.308594 -5.476562 L 45.308594 5.421875 L 32.476562 5.421875 Z M 32.476562 -5.476562 " fill-opacity="1" fill-rule="nonzero"/></g></svg>