<svg xmlns="http://www.w3.org/2000/svg" xmlns:xlink="http://www.w3.org/1999/xlink" width="50" zoomAndPan="magnify" viewBox="0 0 37.5 37.499999" height="50" preserveAspectRatio="xMidYMid meet" version="1.0"><defs><clipPath id="4e93c79e05"><path d="M 0 0 L 37.007812 0 L 37.007812 37.007812 L 0 37.007812 Z M 0 0 " clip-rule="nonzero"/></clipPath><clipPath id="d7f2e8e4bf"><path d="M 0 0 L 6.824219 0 L 6.824219 9.375 L 0 9.375 Z M 0 0 " clip-rule="nonzero"/></clipPath><clipPath id="2775917a61"><path d="M 1.199219 -1.875 C -1.90625 -1.875 -4.425781 0.644531 -4.425781 3.75 C -4.425781 6.855469 -1.90625 9.375 1.199219 9.375 C 4.304688 9.375 6.824219 6.855469 6.824219 3.75 C 6.824219 0.644531 4.304688 -1.875 1.199219 -1.875 " clip-rule="nonzero"/></clipPath><clipPath id="362d151e15"><path d="M 30.898438 0 L 37.007812 0 L 37.007812 9.375 L 30.898438 9.375 Z M 30.898438 0 " clip-rule="nonzero"/></clipPath><clipPath id="43299ea574"><path d="M 36.523438 -1.875 C 33.417969 -1.875 30.898438 0.644531 30.898438 3.75 C 30.898438 6.855469 33.417969 9.375 36.523438 9.375 C 39.632812 9.375 42.148438 6.855469 42.148438 3.75 C 42.148438 0.644531 39.632812 -1.875 36.523438 -1.875 " clip-rule="nonzero"/></clipPath><clipPath id="ada799f750"><path d="M 0 30.675781 L 7.726562 30.675781 L 7.726562 37.007812 L 0 37.007812 Z M 0 30.675781 " clip-rule="nonzero"/></clipPath><clipPath id="858d1801e7"><path d="M 2.101562 30.675781 C -1.007812 30.675781 -3.523438 33.195312 -3.523438 36.300781 C -3.523438 39.40625 -1.007812 41.925781 2.101562 41.925781 C 5.207031 41.925781 7.726562 39.40625 7.726562 36.300781 C 7.726562 33.195312 5.207031 30.675781 2.101562 30.675781 " clip-rule="nonzero"/></clipPath><clipPath id="10ce1fa9ff"><path d="M 30.898438 29.324219 L 37.007812 29.324219 L 37.007812 37.007812 L 30.898438 37.007812 Z M 30.898438 29.324219 " clip-rule="nonzero"/></clipPath><clipPath id="6ea79fae79"><path d="M 36.523438 29.324219 C 33.417969 29.324219 30.898438 31.84375 30.898438 34.949219 C 30.898438 38.054688 33.417969 40.574219 36.523438 40.574219 C 39.632812 40.574219 42.148438 38.054688 42.148438 34.949219 C 42.148438 31.84375 39.632812 29.324219 36.523438 29.324219 " clip-rule="nonzero"/></clipPath></defs><g clip-path="url(#4e93c79e05)"><path fill="#ffffff" d="M 0 0 L 37.5 0 L 37.5 37.5 L 0 37.5 Z M 0 0 " fill-opacity="1" fill-rule="nonzero"/><path fill="#ffffff" d="M 0 0 L 37.5 0 L 37.5 37.5 L 0 37.5 Z M 0 0 " fill-opacity="1" fill-rule="nonzero"/><path fill="#2aabee" d="M 18.714844 -4.648438 C 17.957031 -4.644531 17.199219 -4.605469 16.445312 -4.527344 C 15.691406 -4.449219 14.941406 -4.335938 14.195312 -4.183594 C 13.453125 -4.035156 12.71875 -3.847656 11.992188 -3.625 C 11.265625 -3.398438 10.554688 -3.140625 9.851562 -2.847656 C 9.152344 -2.554688 8.46875 -2.230469 7.800781 -1.871094 C 7.132812 -1.507812 6.480469 -1.117188 5.851562 -0.695312 C 5.222656 -0.269531 4.613281 0.183594 4.027344 0.664062 C 3.441406 1.148438 2.882812 1.660156 2.347656 2.199219 C 1.8125 2.734375 1.304688 3.300781 0.824219 3.886719 C 0.34375 4.476562 -0.109375 5.085938 -0.527344 5.714844 C -0.949219 6.347656 -1.339844 7 -1.695312 7.667969 C -2.050781 8.339844 -2.375 9.027344 -2.664062 9.726562 C -2.957031 10.429688 -3.210938 11.144531 -3.429688 11.871094 C -3.648438 12.597656 -3.832031 13.332031 -3.980469 14.078125 C -4.128906 14.820312 -4.238281 15.570312 -4.3125 16.328125 C -4.386719 17.082031 -4.425781 17.839844 -4.425781 18.601562 C -4.425781 19.363281 -4.386719 20.121094 -4.3125 20.878906 C -4.238281 21.636719 -4.125 22.390625 -3.976562 23.136719 C -3.828125 23.882812 -3.644531 24.621094 -3.425781 25.347656 C -3.203125 26.078125 -2.945312 26.792969 -2.65625 27.496094 C -2.363281 28.199219 -2.039062 28.886719 -1.679688 29.558594 C -1.320312 30.230469 -0.929688 30.882812 -0.507812 31.515625 C -0.0820312 32.148438 0.371094 32.761719 0.851562 33.351562 C 1.335938 33.9375 1.847656 34.5 2.386719 35.039062 C 2.921875 35.578125 3.488281 36.089844 4.074219 36.574219 C 4.664062 37.054688 5.273438 37.507812 5.90625 37.933594 C 6.542969 38.355469 7.195312 38.746094 7.863281 39.105469 C 8.535156 39.464844 9.222656 39.789062 9.925781 40.082031 C 10.632812 40.371094 11.347656 40.628906 12.074219 40.847656 C 12.804688 41.070312 13.542969 41.253906 14.289062 41.402344 C 15.035156 41.550781 15.789062 41.664062 16.546875 41.738281 C 17.304688 41.8125 18.0625 41.851562 18.824219 41.851562 C 19.585938 41.851562 20.347656 41.8125 21.105469 41.738281 C 21.863281 41.664062 22.613281 41.550781 23.359375 41.402344 C 24.109375 41.253906 24.84375 41.070312 25.574219 40.847656 C 26.304688 40.628906 27.019531 40.371094 27.722656 40.082031 C 28.425781 39.789062 29.113281 39.464844 29.785156 39.105469 C 30.457031 38.746094 31.109375 38.355469 31.742188 37.933594 C 32.375 37.507812 32.984375 37.054688 33.574219 36.574219 C 34.164062 36.089844 34.726562 35.578125 35.265625 35.039062 C 35.804688 34.5 36.3125 33.9375 36.796875 33.351562 C 37.28125 32.761719 37.734375 32.148438 38.15625 31.515625 C 38.578125 30.882812 38.972656 30.230469 39.328125 29.558594 C 39.6875 28.886719 40.015625 28.199219 40.304688 27.496094 C 40.597656 26.792969 40.851562 26.078125 41.074219 25.347656 C 41.292969 24.621094 41.480469 23.882812 41.628906 23.136719 C 41.777344 22.390625 41.886719 21.636719 41.964844 20.878906 C 42.039062 20.121094 42.074219 19.363281 42.074219 18.601562 C 42.074219 17.839844 42.039062 17.078125 41.964844 16.320312 C 41.886719 15.5625 41.777344 14.8125 41.628906 14.0625 C 41.480469 13.316406 41.292969 12.578125 41.074219 11.851562 C 40.851562 11.121094 40.597656 10.40625 40.304688 9.703125 C 40.015625 9 39.6875 8.3125 39.328125 7.640625 C 38.972656 6.96875 38.578125 6.316406 38.15625 5.683594 C 37.734375 5.050781 37.28125 4.4375 36.796875 3.851562 C 36.3125 3.261719 35.804688 2.699219 35.265625 2.160156 C 34.726562 1.621094 34.164062 1.109375 33.574219 0.628906 C 32.984375 0.144531 32.375 -0.308594 31.742188 -0.730469 C 31.109375 -1.15625 30.457031 -1.546875 29.785156 -1.90625 C 29.113281 -2.261719 28.425781 -2.589844 27.722656 -2.878906 C 27.019531 -3.171875 26.304688 -3.429688 25.574219 -3.648438 C 24.84375 -3.871094 24.109375 -4.054688 23.359375 -4.203125 C 22.613281 -4.351562 21.863281 -4.464844 21.105469 -4.539062 C 20.347656 -4.613281 19.585938 -4.648438 18.824219 -4.648438 C 18.789062 -4.648438 18.753906 -4.648438 18.714844 -4.648438 Z M 28.332031 9.347656 C 28.523438 9.34375 28.953125 9.390625 29.230469 9.617188 C 29.421875 9.785156 29.535156 9.996094 29.5625 10.246094 C 29.59375 10.425781 29.632812 10.839844 29.601562 11.160156 C 29.253906 14.839844 27.738281 23.757812 26.964844 27.875 C 26.640625 29.621094 26 30.203125 25.378906 30.261719 C 24.027344 30.386719 23.003906 29.367188 21.695312 28.511719 C 19.648438 27.167969 18.492188 26.335938 16.507812 25.023438 C 14.210938 23.511719 15.699219 22.679688 17.007812 21.324219 C 17.351562 20.96875 23.296875 15.554688 23.414062 15.066406 C 23.429688 15.003906 23.441406 14.773438 23.304688 14.65625 C 23.171875 14.535156 22.96875 14.574219 22.824219 14.609375 C 22.617188 14.65625 19.351562 16.816406 13.019531 21.089844 C 12.089844 21.730469 11.25 22.039062 10.496094 22.019531 C 9.667969 22.003906 8.070312 21.554688 6.882812 21.167969 C 5.425781 20.691406 4.269531 20.441406 4.371094 19.636719 C 4.421875 19.21875 5 18.792969 6.097656 18.355469 C 12.875 15.402344 17.394531 13.453125 19.65625 12.515625 C 26.113281 9.828125 27.457031 9.363281 28.332031 9.347656 Z M 28.332031 9.347656 " fill-opacity="1" fill-rule="nonzero"/></g><g clip-path="url(#d7f2e8e4bf)"><g clip-path="url(#2775917a61)"><path fill="#2aabee" d="M -4.425781 -1.875 L 6.824219 -1.875 L 6.824219 9.375 L -4.425781 9.375 Z M -4.425781 -1.875 " fill-opacity="1" fill-rule="nonzero"/></g></g><g clip-path="url(#362d151e15)"><g clip-path="url(#43299ea574)"><path fill="#2aabee" d="M 30.898438 -1.875 L 42.148438 -1.875 L 42.148438 9.375 L 30.898438 9.375 Z M 30.898438 -1.875 " fill-opacity="1" fill-rule="nonzero"/></g></g><g clip-path="url(#ada799f750)"><g clip-path="url(#858d1801e7)"><path fill="#2aabee" d="M -3.523438 30.675781 L 7.726562 30.675781 L 7.726562 41.925781 L -3.523438 41.925781 Z M -3.523438 30.675781 " fill-opacity="1" fill-rule="nonzero"/></g></g><g clip-path="url(#10ce1fa9ff)"><g clip-path="url(#6ea79fae79)"><path fill="#2aabee" d="M 30.898438 29.324219 L 42.148438 29.324219 L 42.148438 40.574219 L 30.898438 40.574219 Z M 30.898438 29.324219 " fill-opacity="1" fill-rule="nonzero"/></g></g></svg>