<svg xmlns="http://www.w3.org/2000/svg" xmlns:xlink="http://www.w3.org/1999/xlink" width="50" zoomAndPan="magnify" viewBox="0 0 37.5 37.499999" height="50" preserveAspectRatio="xMidYMid meet" version="1.0"><defs><clipPath id="e23dddf4ca"><path d="M 0 0 L 37.007812 0 L 37.007812 37.007812 L 0 37.007812 Z M 0 0 " clip-rule="nonzero"/></clipPath><clipPath id="ef90bf96d0"><path d="M 4 2.175781 L 34 2.175781 L 34 35.175781 L 4 35.175781 Z M 4 2.175781 " clip-rule="nonzero"/></clipPath></defs><g clip-path="url(#e23dddf4ca)"><path fill="#ffffff" d="M 0 0 L 37.5 0 L 37.5 37.5 L 0 37.5 Z M 0 0 " fill-opacity="1" fill-rule="nonzero"/><path fill="#000000" d="M 0 0 L 37.5 0 L 37.5 37.5 L 0 37.5 Z M 0 0 " fill-opacity="1" fill-rule="nonzero"/></g><g clip-path="url(#ef90bf96d0)"><path fill="#ffffff" d="M 19.398438 2.203125 C 21.199219 2.175781 22.984375 2.1875 24.773438 2.175781 C 24.882812 4.277344 25.640625 6.421875 27.179688 7.910156 C 28.71875 9.433594 30.890625 10.136719 33.007812 10.371094 L 33.007812 15.910156 C 31.03125 15.84375 29.035156 15.429688 27.234375 14.578125 C 26.449219 14.21875 25.722656 13.765625 25.007812 13.296875 C 24.992188 17.3125 25.019531 21.328125 24.980469 25.328125 C 24.871094 27.253906 24.238281 29.167969 23.125 30.746094 C 21.320312 33.386719 18.199219 35.105469 14.996094 35.160156 C 13.03125 35.269531 11.0625 34.734375 9.386719 33.746094 C 6.609375 32.109375 4.65625 29.109375 4.367188 25.894531 C 4.339844 25.207031 4.328125 24.519531 4.355469 23.84375 C 4.601562 21.234375 5.894531 18.730469 7.902344 17.023438 C 10.183594 15.046875 13.375 14.097656 16.359375 14.660156 C 16.386719 16.695312 16.304688 18.730469 16.304688 20.765625 C 14.941406 20.324219 13.347656 20.449219 12.152344 21.273438 C 11.285156 21.835938 10.625 22.703125 10.28125 23.679688 C 9.992188 24.382812 10.074219 25.152344 10.089844 25.894531 C 10.417969 28.148438 12.589844 30.046875 14.902344 29.839844 C 16.441406 29.828125 17.910156 28.933594 18.710938 27.625 C 18.96875 27.171875 19.257812 26.703125 19.273438 26.167969 C 19.410156 23.707031 19.355469 21.261719 19.371094 18.796875 C 19.382812 13.257812 19.355469 7.730469 19.398438 2.203125 Z M 19.398438 2.203125 " fill-opacity="1" fill-rule="nonzero"/></g></svg>