<svg xmlns="http://www.w3.org/2000/svg" xmlns:xlink="http://www.w3.org/1999/xlink" width="50" zoomAndPan="magnify" viewBox="0 0 37.5 37.499999" height="50" preserveAspectRatio="xMidYMid meet" version="1.0"><defs><clipPath id="8ff96240de"><path d="M 0 0 L 37.007812 0 L 37.007812 37.007812 L 0 37.007812 Z M 0 0 " clip-rule="nonzero"/></clipPath><clipPath id="17546841d0"><path d="M 2.210938 5 L 35.210938 5 L 35.210938 33 L 2.210938 33 Z M 2.210938 5 " clip-rule="nonzero"/></clipPath></defs><g clip-path="url(#8ff96240de)"><path fill="#ffffff" d="M 0 0 L 37.5 0 L 37.5 37.5 L 0 37.5 Z M 0 0 " fill-opacity="1" fill-rule="nonzero"/><path fill="#1da1f2" d="M 0 0 L 37.5 0 L 37.5 37.5 L 0 37.5 Z M 0 0 " fill-opacity="1" fill-rule="nonzero"/></g><g clip-path="url(#17546841d0)"><path fill="#ffffff" d="M 35.148438 8.496094 C 33.90625 9.042969 32.609375 9.398438 31.261719 9.5625 C 32.722656 8.683594 33.714844 7.4375 34.238281 5.816406 C 32.929688 6.582031 31.480469 7.136719 29.9375 7.445312 C 29.429688 6.902344 28.847656 6.453125 28.1875 6.101562 C 27.53125 5.75 26.835938 5.515625 26.101562 5.390625 C 25.367188 5.269531 24.632812 5.269531 23.894531 5.390625 C 23.160156 5.511719 22.464844 5.75 21.808594 6.101562 C 21.152344 6.453125 20.566406 6.898438 20.058594 7.441406 C 19.550781 7.988281 19.140625 8.597656 18.832031 9.277344 C 18.527344 9.957031 18.335938 10.667969 18.265625 11.40625 C 18.191406 12.148438 18.238281 12.882812 18.410156 13.609375 C 12.785156 13.34375 7.804688 10.640625 4.46875 6.558594 C 3.847656 7.609375 3.542969 8.746094 3.550781 9.964844 C 3.550781 12.316406 4.746094 14.382812 6.558594 15.59375 C 5.46875 15.5625 4.449219 15.277344 3.496094 14.75 L 3.496094 14.832031 C 3.496094 15.613281 3.628906 16.371094 3.890625 17.105469 C 4.152344 17.84375 4.53125 18.511719 5.023438 19.117188 C 5.519531 19.722656 6.101562 20.226562 6.769531 20.628906 C 7.4375 21.035156 8.15625 21.3125 8.921875 21.46875 C 7.917969 21.738281 6.902344 21.777344 5.882812 21.585938 C 6.097656 22.257812 6.414062 22.878906 6.824219 23.453125 C 7.238281 24.027344 7.726562 24.527344 8.292969 24.949219 C 8.863281 25.367188 9.480469 25.691406 10.148438 25.921875 C 10.816406 26.148438 11.503906 26.269531 12.210938 26.285156 C 11.015625 27.222656 9.699219 27.941406 8.257812 28.4375 C 6.820312 28.933594 5.34375 29.179688 3.820312 29.175781 C 3.285156 29.175781 2.75 29.144531 2.210938 29.085938 C 3.761719 30.078125 5.421875 30.832031 7.191406 31.351562 C 8.957031 31.867188 10.761719 32.125 12.601562 32.121094 C 25.050781 32.121094 31.851562 21.816406 31.851562 12.894531 C 31.851562 12.605469 31.851562 12.316406 31.828125 12.027344 C 33.167969 11.0625 34.296875 9.894531 35.210938 8.523438 Z M 35.148438 8.496094 " fill-opacity="1" fill-rule="nonzero"/></g></svg>