<svg xmlns="http://www.w3.org/2000/svg" xmlns:xlink="http://www.w3.org/1999/xlink" width="50" zoomAndPan="magnify" viewBox="0 0 37.5 37.499999" height="50" preserveAspectRatio="xMidYMid meet" version="1.0"><defs><clipPath id="f36525bd3e"><path d="M 0 0 L 37.007812 0 L 37.007812 37.007812 L 0 37.007812 Z M 0 0 " clip-rule="nonzero"/></clipPath><clipPath id="b8f3af4049"><path d="M 31.875 0 L 37.007812 0 L 37.007812 37.007812 L 31.875 37.007812 Z M 31.875 0 " clip-rule="nonzero"/></clipPath><clipPath id="89893c1ffe"><path d="M 0.148438 27.601562 L 37.007812 27.601562 L 37.007812 37.007812 L 0.148438 37.007812 Z M 0.148438 27.601562 " clip-rule="nonzero"/></clipPath><clipPath id="13da8ded89"><path d="M 24.375 23.398438 L 37.007812 23.398438 L 37.007812 37.007812 L 24.375 37.007812 Z M 24.375 23.398438 " clip-rule="nonzero"/></clipPath><clipPath id="26404ff4ff"><path d="M 29.476562 20.550781 L 37.007812 20.550781 L 37.007812 34.648438 L 29.476562 34.648438 Z M 29.476562 20.550781 " clip-rule="nonzero"/></clipPath><clipPath id="413274f822"><path d="M 3.75 0 L 37.007812 0 L 37.007812 3.75 L 3.75 3.75 Z M 3.75 0 " clip-rule="nonzero"/></clipPath><clipPath id="b0563048a2"><path d="M 0 0 L 9.375 0 L 9.375 37.007812 L 0 37.007812 Z M 0 0 " clip-rule="nonzero"/></clipPath><clipPath id="7af92b1a06"><path d="M 4 1.800781 L 34 1.800781 L 34 36.300781 L 4 36.300781 Z M 4 1.800781 " clip-rule="nonzero"/></clipPath></defs><g clip-path="url(#f36525bd3e)"><path fill="#ffffff" d="M 0 0 L 37.5 0 L 37.5 172.5 L 0 172.5 Z M 0 0 " fill-opacity="1" fill-rule="nonzero"/><path fill="#ffffff" d="M 0 0 L 37.5 0 L 37.5 37.5 L 0 37.5 Z M 0 0 " fill-opacity="1" fill-rule="nonzero"/><path fill="#ffffff" d="M 0 0 L 37.5 0 L 37.5 37.5 L 0 37.5 Z M 0 0 " fill-opacity="1" fill-rule="nonzero"/></g><g clip-path="url(#b8f3af4049)"><path fill="#6441a5" d="M 31.875 -3 L 43.125 -3 L 43.125 37.429688 L 31.875 37.429688 Z M 31.875 -3 " fill-opacity="1" fill-rule="nonzero"/></g><g clip-path="url(#89893c1ffe)"><path fill="#6441a5" d="M 0.148438 27.601562 L 37.589844 27.601562 L 37.589844 41.664062 L 0.148438 41.664062 Z M 0.148438 27.601562 " fill-opacity="1" fill-rule="nonzero"/></g><g clip-path="url(#13da8ded89)"><path fill="#6441a5" d="M 24.375 23.398438 L 61.816406 23.398438 L 61.816406 37.460938 L 24.375 37.460938 Z M 24.375 23.398438 " fill-opacity="1" fill-rule="nonzero"/></g><g clip-path="url(#26404ff4ff)"><path fill="#6441a5" d="M 29.476562 20.550781 L 66.917969 20.550781 L 66.917969 34.613281 L 29.476562 34.613281 Z M 29.476562 20.550781 " fill-opacity="1" fill-rule="nonzero"/></g><g clip-path="url(#413274f822)"><path fill="#6441a5" d="M 3.75 -10.351562 L 41.191406 -10.351562 L 41.191406 3.710938 L 3.75 3.710938 Z M 3.75 -10.351562 " fill-opacity="1" fill-rule="nonzero"/></g><g clip-path="url(#b0563048a2)"><path fill="#6441a5" d="M -1.875 0 L 9.375 0 L 9.375 40.429688 L -1.875 40.429688 Z M -1.875 0 " fill-opacity="1" fill-rule="nonzero"/></g><g clip-path="url(#7af92b1a06)"><path fill="#8355db" d="M 18.433594 8.578125 L 20.898438 8.578125 L 20.898438 15.96875 L 18.433594 15.96875 Z M 25.210938 8.578125 L 27.675781 8.578125 L 27.675781 15.96875 L 25.210938 15.96875 Z M 10.425781 1.800781 L 4.265625 7.960938 L 4.265625 30.140625 L 11.65625 30.140625 L 11.65625 36.300781 L 17.816406 30.140625 L 22.746094 30.140625 L 33.835938 19.050781 L 33.835938 1.800781 Z M 31.371094 17.816406 L 26.441406 22.746094 L 21.515625 22.746094 L 17.203125 27.058594 L 17.203125 22.746094 L 11.65625 22.746094 L 11.65625 4.265625 L 31.371094 4.265625 Z M 31.371094 17.816406 " fill-opacity="1" fill-rule="nonzero"/></g></svg>