<svg xmlns="http://www.w3.org/2000/svg" xmlns:xlink="http://www.w3.org/1999/xlink" width="200" zoomAndPan="magnify" viewBox="0 0 150 149.999998" height="200" preserveAspectRatio="xMidYMid meet" version="1.0"><path stroke-linecap="round" transform="matrix(6.249999, 0, 0, 6.249999, 0.00000125, 0.000002)" fill="none" stroke-linejoin="round" d="M 17.216876 19.332501 C 15.935001 17.900626 14.072501 17.000001 12.000001 17.000001 C 9.927501 17.000001 8.065 17.900626 6.783125 19.332501 M 12.000001 21.000001 C 7.029375 21.000001 3 16.970626 3 12.000001 C 3 7.029375 7.029375 3 12.000001 3 C 16.970626 3 21.000002 7.029375 21.000002 12.000001 C 21.000002 16.970626 16.970626 21.000001 12.000001 21.000001 Z M 12.000001 14.000001 C 10.343126 14.000001 9.000001 12.656876 9.000001 11.000001 C 9.000001 9.343125 10.343126 8 12.000001 8 C 13.656876 8 15.000001 9.343125 15.000001 11.000001 C 15.000001 12.656876 13.656876 14.000001 12.000001 14.000001 Z M 12.000001 14.000001 " stroke="#ffffff" stroke-width="2" stroke-opacity="1" stroke-miterlimit="4"/></svg>