<svg xmlns="http://www.w3.org/2000/svg" xmlns:xlink="http://www.w3.org/1999/xlink" width="50" zoomAndPan="magnify" viewBox="0 0 37.5 37.499999" height="50" preserveAspectRatio="xMidYMid meet" version="1.0"><defs><clipPath id="7170d6048d"><path d="M 0 0 L 37.007812 0 L 37.007812 37.007812 L 0 37.007812 Z M 0 0 " clip-rule="nonzero"/></clipPath><clipPath id="2b13e746e3"><path d="M 3 2.023438 L 35.25 2.023438 L 35.25 34.273438 L 3 34.273438 Z M 3 2.023438 " clip-rule="nonzero"/></clipPath></defs><g clip-path="url(#7170d6048d)"><path fill="#ffffff" d="M 0 0 L 37.5 0 L 37.5 37.5 L 0 37.5 Z M 0 0 " fill-opacity="1" fill-rule="nonzero"/><path fill="#25d366" d="M 0 0 L 37.5 0 L 37.5 37.5 L 0 37.5 Z M 0 0 " fill-opacity="1" fill-rule="nonzero"/></g><g clip-path="url(#2b13e746e3)"><path fill="#ffffff" d="M 26.476562 21.351562 C 26.078125 21.152344 24.117188 20.1875 23.75 20.050781 C 23.382812 19.917969 23.117188 19.851562 22.851562 20.253906 C 22.585938 20.652344 21.820312 21.550781 21.585938 21.816406 C 21.355469 22.085938 21.121094 22.117188 20.722656 21.917969 C 20.324219 21.714844 19.035156 21.296875 17.511719 19.9375 C 16.324219 18.878906 15.519531 17.570312 15.289062 17.167969 C 15.054688 16.769531 15.265625 16.554688 15.464844 16.355469 C 15.644531 16.175781 15.863281 15.886719 16.0625 15.65625 C 16.261719 15.421875 16.328125 15.253906 16.464844 14.988281 C 16.597656 14.722656 16.53125 14.488281 16.429688 14.289062 C 16.328125 14.089844 15.53125 12.125 15.199219 11.324219 C 14.875 10.546875 14.542969 10.652344 14.300781 10.636719 C 14.066406 10.628906 13.800781 10.625 13.535156 10.625 C 13.269531 10.625 12.835938 10.722656 12.46875 11.125 C 12.105469 11.523438 11.070312 12.488281 11.070312 14.457031 C 11.070312 16.421875 12.503906 18.320312 12.703125 18.585938 C 12.902344 18.851562 15.519531 22.886719 19.523438 24.617188 C 20.476562 25.027344 21.21875 25.273438 21.800781 25.457031 C 22.757812 25.761719 23.628906 25.71875 24.316406 25.613281 C 25.082031 25.5 26.675781 24.648438 27.011719 23.714844 C 27.34375 22.785156 27.34375 21.984375 27.242188 21.816406 C 27.144531 21.652344 26.878906 21.550781 26.476562 21.351562 M 19.191406 31.296875 L 19.1875 31.296875 C 16.765625 31.296875 14.511719 30.679688 12.425781 29.445312 L 11.941406 29.160156 L 6.914062 30.480469 L 8.253906 25.578125 L 7.941406 25.074219 C 6.582031 22.914062 5.90625 20.558594 5.910156 18.007812 C 5.910156 10.683594 11.871094 4.722656 19.199219 4.722656 C 22.746094 4.722656 26.082031 6.109375 28.585938 8.617188 C 29.835938 9.863281 30.796875 11.300781 31.472656 12.929688 C 32.148438 14.558594 32.480469 16.253906 32.476562 18.015625 C 32.472656 25.339844 26.511719 31.296875 19.191406 31.296875 M 30.496094 6.710938 C 29 5.207031 27.273438 4.046875 25.3125 3.234375 C 23.355469 2.421875 21.3125 2.019531 19.191406 2.023438 C 10.382812 2.023438 3.214844 9.195312 3.210938 18.003906 C 3.210938 20.820312 3.945312 23.570312 5.34375 25.992188 L 3.078125 34.273438 L 11.550781 32.050781 C 13.929688 33.347656 16.476562 33.996094 19.183594 34 L 19.191406 34 C 28 34 35.167969 26.828125 35.171875 18.015625 C 35.179688 15.894531 34.777344 13.855469 33.96875 11.894531 C 33.15625 9.9375 32 8.207031 30.496094 6.710938 Z M 30.496094 6.710938 " fill-opacity="1" fill-rule="nonzero"/></g></svg>