<svg xmlns="http://www.w3.org/2000/svg" xmlns:xlink="http://www.w3.org/1999/xlink" width="50" zoomAndPan="magnify" viewBox="0 0 37.5 37.499999" height="50" preserveAspectRatio="xMidYMid meet" version="1.0"><defs><clipPath id="b2ee790fcd"><path d="M 0 0 L 37.007812 0 L 37.007812 37.007812 L 0 37.007812 Z M 0 0 " clip-rule="nonzero"/></clipPath><clipPath id="dec8235480"><path d="M 2.476562 7 L 34.726562 7 L 34.726562 31 L 2.476562 31 Z M 2.476562 7 " clip-rule="nonzero"/></clipPath></defs><g clip-path="url(#b2ee790fcd)"><path fill="#ffffff" d="M 0 0 L 37.5 0 L 37.5 37.5 L 0 37.5 Z M 0 0 " fill-opacity="1" fill-rule="nonzero"/><path fill="#ff0000" d="M 0 0 L 37.5 0 L 37.5 37.5 L 0 37.5 Z M 0 0 " fill-opacity="1" fill-rule="nonzero"/></g><g clip-path="url(#dec8235480)"><path fill="#ffffff" d="M 34.050781 10.9375 C 33.863281 10.238281 33.519531 9.632812 33.007812 9.121094 C 32.5 8.609375 31.894531 8.257812 31.199219 8.066406 C 28.683594 7.386719 18.601562 7.386719 18.601562 7.386719 C 18.601562 7.386719 8.515625 7.386719 6 8.066406 C 5.304688 8.257812 4.699219 8.609375 4.191406 9.121094 C 3.683594 9.632812 3.335938 10.238281 3.148438 10.9375 C 2.476562 13.46875 2.476562 18.75 2.476562 18.75 C 2.476562 18.75 2.476562 24.03125 3.148438 26.5625 C 3.335938 27.261719 3.683594 27.867188 4.191406 28.378906 C 4.699219 28.890625 5.304688 29.242188 6 29.433594 C 8.515625 30.113281 18.601562 30.113281 18.601562 30.113281 C 18.601562 30.113281 28.683594 30.113281 31.199219 29.433594 C 31.898438 29.242188 32.5 28.890625 33.011719 28.378906 C 33.519531 27.867188 33.867188 27.261719 34.050781 26.5625 C 34.726562 24.03125 34.726562 18.75 34.726562 18.75 C 34.726562 18.75 34.726562 13.46875 34.050781 10.9375 Z M 15.300781 23.542969 L 15.300781 13.957031 L 23.730469 18.75 Z M 15.300781 23.542969 " fill-opacity="1" fill-rule="nonzero"/></g></svg>